<?xml version="1.0" encoding="utf-8"?>
<!-- Generator: Adobe Illustrator 22.0.0, SVG Export Plug-In . SVG Version: 6.00 Build 0)  -->
<svg version="1.1" id="Capa_1" xmlns="http://www.w3.org/2000/svg" xmlns:xlink="http://www.w3.org/1999/xlink" x="0px" y="0px"
	 viewBox="0 0 127 107" style="enable-background:new 0 0 127 107;" xml:space="preserve">
<style type="text/css">
	.st0{fill:#F6C508;}
	.st1{fill:#001E58;}
</style>
<title>bono-verde</title>
<rect x="6.3" y="46.5" class="st0" width="71.5" height="55.3"/>
<g>
	<g>
		<path class="st1" d="M105.2,59.3H47.9c-2.8,0-5.1-2.3-5.1-5.1v-8.9c0-0.8,0.7-1.5,1.5-1.5s1.5,0.7,1.5,1.5v8.9
			c0,1.2,0.9,2.1,2.1,2.1h57.3c1.2,0,2.1-0.9,2.1-2.1V12.7c-0.1-1.1-1-2.1-2.2-2.1H47.8c-1.2,0-2.1,0.9-2.1,2.1v21.8
			c0,0.8-0.7,1.5-1.5,1.5s-1.5-0.7-1.5-1.5V12.7c0-2.8,2.3-5.1,5.1-5.1h57.3c2.8,0,5.1,2.2,5.2,5l0,41.6
			C110.3,57,108,59.3,105.2,59.3z"/>
	</g>
	<g>
		<path class="st1" d="M30.1,15c2.2,0,4,1.8,4,4s-1.8,4-4,4s-4-1.8-4-4S27.9,15,30.1,15 M30.1,12c-3.9,0-7,3.1-7,7s3.1,7,7,7
			c3.9,0,7-3.1,7-7S34,12,30.1,12L30.1,12z"/>
	</g>
	<g>
		<path class="st1" d="M39.7,80.5L39.7,80.5L39.7,80.5 M40.1,81.1c0.2,0,0.5,0.4,0.5,0.8l1.2,11.6c-0.1,0.3-0.2,0.5-0.5,0.6
			c-2.4,0.8-6.9,1.3-9.9,1.3c-2.9,0-7.4-0.5-9.9-1.2c-0.3-0.1-0.5-0.3-0.5-0.6l1.2-11.6c0-0.2,0-0.4,0-0.6c0-0.1,0-0.2,0-0.2
			c0,0,0,0,0.1,0h1.1c2.3,1.8,5,2.8,7.8,2.8c3,0,5.7-1,7.9-2.8H40.1 M40.1,78.1h-1.8c-0.3,0-0.5,0.1-0.7,0.3
			c-1.7,1.6-3.9,2.5-6.4,2.5s-4.7-1-6.4-2.5c-0.2-0.2-0.5-0.3-0.7-0.3h-1.8c-1.9,0-3.3,1.6-3.1,3.5L18,93.5c0.1,1.5,1.1,2.9,2.6,3.4
			c2.8,0.9,7.6,1.4,10.8,1.4c3.2,0,8-0.5,10.8-1.4c1.5-0.5,2.5-1.8,2.6-3.4l-1.2-11.9C43.4,79.7,42,78.1,40.1,78.1L40.1,78.1z"/>
	</g>
	<g>
		<path class="st1" d="M31.1,67.3c2.3,0,4.2,1.9,4.2,4.2c0,2.3-1.9,4.2-4.2,4.2s-4.2-1.9-4.2-4.2C26.9,69.2,28.8,67.3,31.1,67.3
			 M31.1,64.3c-4,0-7.2,3.2-7.2,7.2s3.2,7.2,7.2,7.2s7.2-3.2,7.2-7.2S35.1,64.3,31.1,64.3L31.1,64.3z"/>
	</g>
	<g>
		<path class="st1" d="M71.8,80.5L71.8,80.5L71.8,80.5 M72.2,81.1c0.2,0,0.5,0.3,0.5,0.7c0,0,0,0.1,0,0.1l1.2,11.6
			c-0.1,0.3-0.2,0.5-0.5,0.6c-2.4,0.8-6.9,1.3-9.9,1.3s-7.4-0.5-9.9-1.2c-0.3-0.1-0.5-0.3-0.5-0.6l1.2-11.6c0-0.2,0-0.4,0-0.6
			c0-0.1,0-0.2,0-0.2c0,0,0,0,0.1,0h1.1c2.3,1.8,5,2.8,7.8,2.8c3,0,5.7-1,7.9-2.8H72.2 M72.2,78.1h-1.8c-0.3,0-0.5,0.1-0.7,0.3
			c-1.7,1.6-3.9,2.5-6.4,2.5s-4.7-1-6.4-2.5c-0.2-0.2-0.5-0.3-0.7-0.3h-1.8c-1.9,0-3.3,1.6-3.1,3.5l-1.2,11.9
			c0.1,1.5,1.1,2.9,2.6,3.4c2.8,0.9,7.6,1.4,10.8,1.4s8-0.5,10.8-1.4c1.5-0.5,2.5-1.8,2.6-3.4l-1.2-11.9
			C75.6,79.7,74.1,78.1,72.2,78.1L72.2,78.1z"/>
	</g>
	<g>
		<path class="st1" d="M63.3,67.3c2.3,0,4.2,1.9,4.2,4.2c0,2.3-1.9,4.2-4.2,4.2c-2.3,0-4.2-1.9-4.2-4.2C59.1,69.2,61,67.3,63.3,67.3
			 M63.3,64.3c-4,0-7.2,3.2-7.2,7.2s3.2,7.2,7.2,7.2s7.2-3.2,7.2-7.2S67.3,64.3,63.3,64.3L63.3,64.3z"/>
	</g>
	<g>
		<path class="st1" d="M104,80.5L104,80.5L104,80.5 M104.4,81.1c0.1,0,0.5,0.3,0.5,0.8l1.2,11.6c-0.1,0.3-0.2,0.5-0.5,0.6
			c-2.4,0.8-6.9,1.3-9.9,1.3s-7.4-0.5-9.9-1.2c-0.3-0.1-0.5-0.3-0.5-0.6l1.2-11.6c0-0.2,0-0.4,0-0.6c0-0.1,0-0.2,0-0.2
			c0,0,0,0,0.1,0h1.1c2.3,1.8,5,2.8,7.8,2.8c3,0,5.7-1,7.9-2.8H104.4 M104.4,78.1h-1.8c-0.3,0-0.5,0.1-0.7,0.3
			c-1.7,1.6-3.9,2.5-6.4,2.5s-4.7-1-6.4-2.5c-0.2-0.2-0.5-0.3-0.7-0.3h-1.8c-1.9,0-3.3,1.6-3.1,3.5l-1.2,11.9
			c0.1,1.5,1.1,2.9,2.6,3.4c2.8,0.9,7.6,1.4,10.8,1.4s8-0.5,10.8-1.4c1.5-0.5,2.5-1.8,2.6-3.4l-1.2-11.9
			C107.7,79.7,106.2,78.1,104.4,78.1L104.4,78.1z"/>
	</g>
	<g>
		<path class="st1" d="M95.4,67.3c2.3,0,4.2,1.9,4.2,4.2c0,2.3-1.9,4.2-4.2,4.2s-4.2-1.9-4.2-4.2C91.2,69.2,93.1,67.3,95.4,67.3
			 M95.4,64.3c-4,0-7.2,3.2-7.2,7.2s3.2,7.2,7.2,7.2s7.2-3.2,7.2-7.2S99.4,64.3,95.4,64.3L95.4,64.3z"/>
	</g>
	<g>
		<path class="st1" d="M36.5,59.6H23.6c-2,0-3.6-1.7-3.6-3.7l0.3-6.5l-0.8,5.8c-0.3,1.3-1.4,2.2-2.6,2.1l-2.5-0.2
			c-0.1,0-0.1,0-0.2,0c-1.2-0.2-2-1.3-2-2.5c0,0,0-0.1,0-0.1l1.1-12.6c0.1-0.9,0.3-1.6,0.6-2.4l4.3-10.3c0.4-1.1,1.5-2.2,2.7-2.6
			l3.6-1.3c0.4-0.2,0.9-0.1,1.3,0.1c1.4,0.9,2.9,1.3,4.3,1.3c1.6,0,3-0.4,4.3-1.2c0.4-0.3,0.9-0.3,1.4-0.1l3.6,1.4
			c0.1,0,0.2,0.1,0.3,0.1l0.9,0.6c0.1,0.1,0.2,0.1,0.2,0.2c0.6,0.6,1.8,2.5,2.1,2.8c0.4,0.6,2.8,4.5,3.9,6.3l9.8-0.5
			c1.3-0.2,2.6,0.8,2.8,2.2c0,0.1,0,0.1,0,0.2l0.1,1.7c0,1.4-0.9,2.6-2.3,2.8c-2,0.3-6.1,0.9-9.2,1.3c-1.6,0.2-3.1,0.4-3.3,0.4
			c-1.1,0.2-2.1-0.2-2.8-1.1l-2.4-3.2l0.5,15.3C40.1,58,38.5,59.6,36.5,59.6z M22.3,35.6c0.1,0,0.2,0,0.4,0c0.7,0.2,1.2,0.8,1.1,1.5
			L23,55.9c0,0.3,0.2,0.6,0.6,0.6h12.9c0.4,0,0.6-0.3,0.6-0.6l-0.6-20.1c0-0.7,0.4-1.2,1-1.5c0.6-0.2,1.3,0,1.7,0.5l5.1,6.9
			c0.3-0.1,1.2-0.2,3.3-0.4c2.9-0.4,6.8-0.9,8.8-1.2l-0.1-0.9L46,39.8c-0.5,0-1.1-0.3-1.4-0.7c-1.5-2.4-3.9-6.4-4.2-6.9
			c-0.6-1-1.4-2-1.7-2.3l-0.6-0.4l-2.8-1.1c-1.6,0.9-3.3,1.3-5.2,1.3c-1.8,0-3.5-0.5-5.2-1.4l-3,1.1c-0.4,0.1-0.8,0.5-0.9,0.9
			l-4.3,10.4c0,0,0,0.1,0,0.1c-0.2,0.4-0.3,0.8-0.4,1.4l-1,11.9l1.3,0.1l1.6-12c0-0.2,0.1-0.3,0.1-0.4l2.6-5.4
			C21.2,35.9,21.8,35.6,22.3,35.6z"/>
	</g>
</g>
</svg>
