<?xml version="1.0" encoding="utf-8"?>
<!-- Generator: Adobe Illustrator 22.0.0, SVG Export Plug-In . SVG Version: 6.00 Build 0)  -->
<svg version="1.1" id="Capa_1" xmlns="http://www.w3.org/2000/svg" xmlns:xlink="http://www.w3.org/1999/xlink" x="0px" y="0px"
	 viewBox="0 0 127 107" style="enable-background:new 0 0 127 107;" xml:space="preserve">
<style type="text/css">
	.st0{fill:#F6C508;}
	.st1{fill:#001E58;}
</style>
<title>bono-verde</title>
<rect x="44.9" y="9.7" class="st0" width="71.5" height="55.3"/>
<path class="st1" d="M97.4,92.9c-2.5,0-4.9-1.1-6.6-2.9c-4.7-4.8-12.4-4.9-17.2-0.2c-0.1,0.1-0.1,0.1-0.2,0.2
	c-3.4,3.6-9,3.8-12.6,0.5c-0.2-0.1-0.3-0.3-0.5-0.5c-4.7-4.8-12.4-4.9-17.2-0.2C43.1,89.9,43,90,42.9,90c-3.4,3.6-9,3.8-12.6,0.5
	c-0.2-0.1-0.3-0.3-0.5-0.5c-2-2.1-4.7-3.3-7.5-3.6c-0.7-0.1-1.3,0.5-1.3,1.2v0.9c0,0.6,0.5,1.1,1.1,1.2c2.1,0.3,4,1.3,5.5,2.8
	c4.7,4.8,12.4,4.9,17.2,0.2c0.1-0.1,0.1-0.1,0.2-0.2c3.4-3.6,9-3.8,12.6-0.5c0.2,0.1,0.3,0.3,0.5,0.5c4.7,4.8,12.4,4.9,17.2,0.2
	c0.1-0.1,0.1-0.1,0.2-0.2c3.4-3.6,9-3.8,12.6-0.5c0.2,0.1,0.3,0.3,0.5,0.5c4.7,4.8,12.4,4.9,17.2,0.2c0.1-0.1,0.1-0.1,0.2-0.2
	c1.5-1.6,3.5-2.6,5.6-2.8c0.6-0.1,1.1-0.6,1.1-1.2v-0.8c0-0.7-0.6-1.3-1.3-1.2c-2.8,0.3-5.4,1.6-7.4,3.6
	C102.3,91.9,99.9,92.9,97.4,92.9z"/>
<path class="st1" d="M97.4,79.8c-2.5,0-4.9-1.1-6.6-2.9c-4.7-4.8-12.4-4.9-17.2-0.2c-0.1,0.1-0.1,0.1-0.2,0.2
	c-3.4,3.6-9,3.8-12.6,0.5c-0.2-0.1-0.3-0.3-0.5-0.5c-4.7-4.8-12.4-4.9-17.2-0.2c-0.1,0.1-0.1,0.1-0.2,0.2c-3.4,3.6-9,3.8-12.6,0.5
	c-0.2-0.1-0.3-0.3-0.5-0.5c-2-2.1-4.7-3.3-7.5-3.6c-0.7-0.1-1.3,0.5-1.3,1.2v0.9c0,0.6,0.5,1.1,1.1,1.2c2.1,0.3,4,1.3,5.5,2.8
	c4.7,4.8,12.4,4.9,17.2,0.2c0.1-0.1,0.1-0.1,0.2-0.2c3.4-3.6,9-3.8,12.6-0.5c0.2,0.1,0.3,0.3,0.5,0.5c4.7,4.8,12.4,4.9,17.2,0.2
	c0.1-0.1,0.1-0.1,0.2-0.2c3.4-3.6,9-3.8,12.6-0.5c0.2,0.1,0.3,0.3,0.5,0.5c4.7,4.8,12.4,4.9,17.2,0.2c0.1-0.1,0.1-0.1,0.2-0.2
	c1.5-1.6,3.5-2.6,5.6-2.8c0.6-0.1,1.1-0.6,1.1-1.2v-0.8c0-0.7-0.6-1.3-1.3-1.2c-2.8,0.3-5.4,1.6-7.4,3.6
	C102.3,78.8,99.9,79.8,97.4,79.8z"/>
<path class="st1" d="M97.4,66.7c-2.5,0-4.9-1.1-6.6-2.9c-4.7-4.8-12.4-4.9-17.2-0.2c-0.1,0.1-0.1,0.1-0.2,0.2
	c-3.4,3.6-9,3.8-12.6,0.5c-0.2-0.1-0.3-0.3-0.5-0.5c-4.7-4.8-12.4-4.9-17.2-0.2c-0.1,0.1-0.1,0.1-0.2,0.2c-3.4,3.6-9,3.8-12.6,0.5
	c-0.2-0.1-0.3-0.3-0.5-0.5c-2-2.1-4.7-3.3-7.5-3.6c-0.7-0.1-1.3,0.5-1.3,1.2v0.9c0,0.6,0.5,1.1,1.1,1.2c2.1,0.3,4,1.3,5.5,2.8
	c4.7,4.8,12.4,4.9,17.2,0.2c0.1-0.1,0.1-0.1,0.2-0.2c3.4-3.6,9-3.8,12.6-0.5c0.2,0.1,0.3,0.3,0.5,0.5c4.7,4.8,12.4,4.9,17.2,0.2
	c0.1-0.1,0.1-0.1,0.2-0.2c3.4-3.6,9-3.8,12.6-0.5c0.2,0.1,0.3,0.3,0.5,0.5c4.7,4.8,12.4,4.9,17.2,0.2c0.1-0.1,0.1-0.1,0.2-0.2
	c1.5-1.6,3.5-2.6,5.6-2.8c0.6-0.1,1.1-0.6,1.1-1.2v-0.8c0-0.7-0.6-1.3-1.3-1.2c-2.8,0.3-5.4,1.6-7.4,3.6
	C102.3,65.7,99.9,66.7,97.4,66.7z"/>
<path class="st1" d="M53.1,42.8c-0.5,0.7-1.6,0.7-2,0c-4.3-6.9-13.2-9.6-20.8-6.1c-1.8,0.8-3.4,2-4.8,3.4c-0.5,0.5-0.5,1.3,0.1,1.8
	l0.6,0.6c0.5,0.4,1.2,0.4,1.6,0c3.2-3.2,7.9-4.6,12.4-3.6c4.3,1.1,7.7,4.1,9.3,8.2c0.3,0.8-0.3,1.6-1.1,1.6l0,0
	c-0.7,0-1.2,0.5-1.2,1.2v0.8c0,0.7,0.5,1.2,1.2,1.2h7.4c0.7,0,1.2-0.5,1.2-1.2v-0.8c0-0.7-0.5-1.2-1.2-1.2h-0.1
	c-0.8,0-1.4-0.8-1.2-1.6c2.3-6.1,8.9-9.7,15.4-8.2c2.4,0.6,4.6,1.8,6.3,3.5c0.4,0.4,1.2,0.5,1.6,0l0.6-0.6c0.5-0.5,0.6-1.3,0.1-1.8
	c-5.9-6-15.6-6.6-22.2-1.1C55.1,40.1,54,41.4,53.1,42.8z"/>
<path class="st1" d="M95.1,9.4c4.5-1,9.1,0.4,12.4,3.6c0.4,0.4,1.2,0.5,1.6,0l0.6-0.6c0.5-0.5,0.6-1.3,0.1-1.8
	C103.9,4.6,94.2,4,87.6,9.5c-1.3,1.1-2.4,2.4-3.3,3.8c-0.5,0.7-1.6,0.7-2,0C77.9,6.4,69,3.7,61.5,7.2c-1.8,0.8-3.4,2-4.8,3.4
	c-0.5,0.5-0.5,1.3,0.1,1.8l0.6,0.6c0.5,0.4,1.2,0.4,1.6,0c4.8-4.8,12.6-5.2,17.9-0.7c1.7,1.5,3,3.3,3.8,5.4c0.3,0.8-0.3,1.6-1.2,1.6
	h0c-0.7,0-1.2,0.5-1.2,1.2v0.8c0,0.7,0.5,1.2,1.2,1.2h7.4c0.7,0,1.2-0.5,1.2-1.2v-0.8c0-0.7-0.5-1.2-1.2-1.2h0
	c-0.8,0-1.5-0.8-1.1-1.6C87.3,13.5,90.8,10.4,95.1,9.4z"/>
</svg>
