<?xml version="1.0" encoding="utf-8"?>
<!-- Generator: Adobe Illustrator 22.0.0, SVG Export Plug-In . SVG Version: 6.00 Build 0)  -->
<svg version="1.1" id="Capa_1" xmlns="http://www.w3.org/2000/svg" xmlns:xlink="http://www.w3.org/1999/xlink" x="0px" y="0px"
	 viewBox="0 0 127 107" style="enable-background:new 0 0 127 107;" xml:space="preserve">
<style type="text/css">
	.st0{fill:#F6C508;}
	.st1{fill:#001E58;}
</style>
<title>bono-verde</title>
<rect x="50.1" y="6.9" class="st0" width="71.5" height="55.3"/>
<path class="st1" d="M72.2,92.4v-5.6h1.4c0.8,0,1.4-0.6,1.4-1.4v-2.8c0-3.8-3.1-6.9-6.9-6.9c-2.3,0-4.2-1.9-4.2-4.2V59.1
	c0-0.8-0.6-1.4-1.4-1.4H33.3c-0.8,0-1.4,0.6-1.4,1.4v12.5c0,1.5,0.5,3,1.4,4.2h0v16.7h2.8V77.9c0.9,0.4,1.8,0.6,2.8,0.6
	c2.3,0,4.2,1.9,4.2,4.2v2.8c0,0.8,0.6,1.4,1.4,1.4h1.4v5.6h2.8v-5.6h20.8v5.6H72.2z M61.1,60.4v4.2H34.7v-4.2H61.1z M34.7,71.6v-4.2
	h26.4v4.2c0,1.5,0.5,3,1.4,4.2H38.9C36.6,75.7,34.7,73.9,34.7,71.6z M44.4,78.5H68c2.3,0,4.2,1.9,4.2,4.2V84H45.8v-1.4
	C45.8,81.2,45.3,79.7,44.4,78.5z"/>
<path class="st1" d="M99.5,75.6l0.9-2.6l-2.9-1l1.1-4.3L95.8,67l-1.2,4.8l-7.2,2v-9.3c6.3-0.7,11.1-6.1,11.1-12.4V21.6
	c0-6.9-5.6-12.5-12.5-12.5c-5.5,0-10.3,3.6-11.9,8.8c-1.3-1.2-3-1.9-4.7-1.9c-0.7,0-1.5,0.1-2.2,0.4c-3.6-4.9-10.6-6-15.5-2.4
	c-2.5,1.8-4.1,4.6-4.5,7.7c-0.5-0.1-1-0.1-1.5-0.1c-1.1,0-2.1,0.2-3.1,0.6c-4.3-4.4-11.3-4.6-15.7-0.3c-2.2,2.1-3.4,5-3.4,8
	c0,0.8,0.6,1.4,1.4,1.4h27.8c0.8,0,1.4-0.6,1.4-1.4c0-2.1-0.8-4-2.1-5.6h21.6v27.8c0,6.4,4.8,11.7,11.1,12.4v5l-5-2l-1,2.6l6.1,2.4
	v19.9h2.8V76.8l8.3-2.4L99.5,75.6z M26.5,28.5c0.8-4.5,5.1-7.6,9.6-6.8c2,0.3,3.9,1.4,5.2,3.1c0.4,0.5,1.2,0.7,1.8,0.3
	c0.8-0.5,1.8-0.8,2.8-0.8c2.5,0,4.7,1.7,5.4,4.2H26.5z M50.1,21.6c0.8-4.5,5.1-7.6,9.6-6.8c2.5,0.4,4.6,1.9,5.8,4.1
	c0.4,0.7,1.2,0.9,1.9,0.5c0.6-0.4,1.3-0.5,2-0.5c1.8,0,3.3,1.1,3.9,2.8H50.1z M76.4,52.1V21.6c0-5.4,4.4-9.7,9.7-9.7
	s9.7,4.4,9.7,9.7v30.5c0,4.8-3.6,8.9-8.3,9.6v-7.6l5.1-5.1l-2-2l-3.2,3.2v-5.8l5.1-5.1l-2-2l-3.2,3.2v-5.8l5.1-5.1l-2-2l-4.6,4.6
	l-4.6-4.6l-2,2l5.1,5.1v5.8l-3.2-3.2l-2,2l5.1,5.1v5.8L81.5,47l-2,2l5.1,5.1v7.6C79.9,61,76.4,56.9,76.4,52.1z"/>
<rect x="79.1" y="77.9" transform="matrix(0.7071 -0.7071 0.7071 0.7071 -32.8989 80.3388)" class="st1" width="2.8" height="3.9"/>
<rect x="100" y="79.3" transform="matrix(0.7071 -0.7071 0.7071 0.7071 -27.7803 95.4718)" class="st1" width="2.8" height="3.9"/>
<rect x="91.1" y="88.2" transform="matrix(0.7071 -0.7071 0.7071 0.7071 -36.1113 92.0212)" class="st1" width="3.9" height="2.8"/>
<rect x="101.4" y="87.6" transform="matrix(0.7071 -0.7071 0.7071 0.7071 -33.265 98.8936)" class="st1" width="2.8" height="3.9"/>
<rect x="75.8" y="88.2" transform="matrix(0.7071 -0.7071 0.7071 0.7071 -40.5849 81.2214)" class="st1" width="3.9" height="2.8"/>
<rect x="71.6" y="68.8" transform="matrix(0.7071 -0.7071 0.7071 0.7071 -28.0597 72.5828)" class="st1" width="3.9" height="2.8"/>
</svg>
