<?xml version="1.0" encoding="utf-8"?>
<!-- Generator: Adobe Illustrator 22.0.0, SVG Export Plug-In . SVG Version: 6.00 Build 0)  -->
<svg version="1.1" id="Capa_1" xmlns="http://www.w3.org/2000/svg" xmlns:xlink="http://www.w3.org/1999/xlink" x="0px" y="0px"
	 viewBox="0 0 127 107" style="enable-background:new 0 0 127 107;" xml:space="preserve">
<style type="text/css">
	.st0{fill:#F6C508;}
	.st1{fill:#001E58;}
</style>
<title>bono-verde</title>
<rect x="5" y="15.9" class="st0" width="71.5" height="55.3"/>
<g>
	<path class="st1" d="M94.1,35.9c-0.2,0-0.3,0-0.5-0.1C86.3,33.3,78.7,32,71,32.2c-7.7-0.1-15.4,1.1-22.6,3.7
		c-0.7,0.3-1.5-0.1-1.8-0.8c-0.3-0.7,0.1-1.5,0.8-1.8c7.6-2.7,15.5-4,23.5-3.9c8-0.1,15.9,1.2,23.5,3.9c0.7,0.3,1.1,1,0.8,1.8
		C95.2,35.6,94.6,35.9,94.1,35.9z"/>
</g>
<g>
	<path class="st1" d="M94.1,46.9c-0.2,0-0.3,0-0.5-0.1C86.3,44.3,78.7,43,71,43.1c-7.7-0.1-15.4,1.1-22.6,3.7
		c-0.7,0.3-1.5-0.1-1.8-0.8c-0.3-0.7,0.1-1.5,0.8-1.8c7.6-2.7,15.5-4,23.5-3.9c8-0.1,15.9,1.2,23.5,3.9c0.7,0.3,1.1,1,0.8,1.8
		C95.2,46.6,94.6,46.9,94.1,46.9z"/>
</g>
<g>
	<path class="st1" d="M48,57.7c-0.8,0-1.4-0.6-1.4-1.4V19.8c0-5.9,12.6-9.1,24.4-9.1c11.8,0,24.4,3.2,24.4,9.1v36.4
		c0,0.8-0.6,1.4-1.4,1.4s-1.4-0.6-1.4-1.4V19.8c0-2.6-8.2-6.3-21.7-6.3s-21.7,3.7-21.7,6.3v36.5C49.3,57.1,48.7,57.7,48,57.7z"/>
</g>
<g>
	<path class="st1" d="M85.3,55.4c-0.1,0-0.2,0-0.3,0c-9.3-1.7-18.7-1.7-28,0c-0.7,0.1-1.5-0.4-1.6-1.1c-0.1-0.7,0.4-1.5,1.1-1.6
		c9.6-1.8,19.4-1.8,29,0c0.7,0.1,1.2,0.9,1.1,1.6C86.5,55,85.9,55.4,85.3,55.4z"/>
</g>
<g>
	<path class="st1" d="M56.7,76.1c-0.8,0-1.4-0.6-1.4-1.4V33c0-0.8,0.6-1.4,1.4-1.4s1.4,0.6,1.4,1.4v41.7
		C58.1,75.5,57.5,76.1,56.7,76.1z"/>
</g>
<g>
	<path class="st1" d="M66.3,54.1c-0.8,0-1.4-0.6-1.4-1.4V31.9c0-0.8,0.6-1.4,1.4-1.4s1.4,0.6,1.4,1.4v20.9
		C67.6,53.5,67,54.1,66.3,54.1z"/>
</g>
<g>
	<path class="st1" d="M75.8,54.1c-0.8,0-1.4-0.6-1.4-1.4V31.9c0-0.8,0.6-1.4,1.4-1.4s1.4,0.6,1.4,1.4v20.9
		C77.1,53.5,76.5,54.1,75.8,54.1z"/>
</g>
<g>
	<path class="st1" d="M85.3,69.6c-0.8,0-1.4-0.6-1.4-1.4V33c0-0.8,0.6-1.4,1.4-1.4s1.4,0.6,1.4,1.4v35.2C86.7,69,86,69.6,85.3,69.6z
		"/>
</g>
<g>
	<path class="st1" d="M108.6,70.6c-0.8,0-1.4-0.6-1.4-1.4V31.5l-12.5,3.8c-0.7,0.2-1.5-0.2-1.7-0.9c-0.2-0.7,0.2-1.5,0.9-1.7
		l14.3-4.4c0.4-0.1,0.9-0.1,1.2,0.2c0.4,0.3,0.6,0.7,0.6,1.1v39.5C109.9,70,109.3,70.6,108.6,70.6z"/>
</g>
<g>
	<path class="st1" d="M33.9,76.1c-0.8,0-1.4-0.6-1.4-1.4v-45c0-0.4,0.2-0.8,0.6-1.1s0.8-0.3,1.2-0.2l14.3,4.4c0.7,0.2,1.1,1,0.9,1.7
		c-0.2,0.7-1,1.1-1.7,0.9l-12.5-3.8v43.2C35.3,75.5,34.7,76.1,33.9,76.1z"/>
</g>
<g>
	<path class="st1" d="M118.4,76.1c-0.8,0-1.4-0.6-1.4-1.4V37.7h-8.5c-0.8,0-1.4-0.6-1.4-1.4s0.6-1.4,1.4-1.4h9.9
		c0.8,0,1.4,0.6,1.4,1.4v38.4C119.8,75.5,119.2,76.1,118.4,76.1z"/>
</g>
<g>
	<path class="st1" d="M24,76.1c-0.8,0-1.4-0.6-1.4-1.4V36.3c0-0.8,0.6-1.4,1.4-1.4h9.9c0.8,0,1.4,0.6,1.4,1.4s-0.6,1.4-1.4,1.4h-8.5
		v37.1C25.4,75.5,24.8,76.1,24,76.1z"/>
</g>
<g>
	<path class="st1" d="M65.7,77.2H57c-0.8,0-1.4-0.6-1.4-1.4s0.6-1.4,1.4-1.4h8.8c0.8,0,1.4,0.6,1.4,1.4S66.5,77.2,65.7,77.2z"/>
</g>
<g>
	<path class="st1" d="M121.7,77.2h-12.6c-0.8,0-1.4-0.6-1.4-1.4s0.6-1.4,1.4-1.4h12.6c0.8,0,1.4,0.6,1.4,1.4S122.5,77.2,121.7,77.2z
		"/>
</g>
<g>
	<path class="st1" d="M44.9,77.2H19.6c-0.8,0-1.4-0.6-1.4-1.4s0.6-1.4,1.4-1.4h25.3c0.8,0,1.4,0.6,1.4,1.4S45.6,77.2,44.9,77.2z"/>
</g>
<g>
	<path class="st1" d="M91.9,101.3c-0.3,0-0.6-0.1-0.9-0.3c-0.3-0.3-0.5-0.7-0.5-1.1V71.8c0-0.7,0.5-1.3,1.2-1.4l17.2-1.8
		c0.4,0,0.8,0.1,1.1,0.3c0.3,0.3,0.5,0.6,0.5,1v26.3c0,0.6-0.5,1.2-1.1,1.3l-17.2,3.6C92,101.3,92,101.3,91.9,101.3z M93.2,73.1
		v25.2l14.5-3.1V71.5L93.2,73.1z"/>
</g>
<g>
	<path class="st1" d="M91.9,101.3c-0.1,0-0.1,0-0.2,0l-6.4-0.9c-0.7-0.1-1.2-0.7-1.2-1.4V71.8c0-0.8,0.6-1.4,1.4-1.4h6.4
		c0.8,0,1.4,0.6,1.4,1.4s-0.6,1.4-1.4,1.4h-5v24.7l5.2,0.7c0.8,0.1,1.3,0.8,1.2,1.6C93.1,100.8,92.5,101.3,91.9,101.3z"/>
</g>
<g>
	<path class="st1" d="M96.4,75.9c-0.7,0-1.2-0.5-1.4-1.1c-0.2-1.2-1.9-12.2,3.8-13.4c1.8-0.4,3.2-0.1,4.4,0.9
		c2.5,2,2.7,6.5,2.7,11.4c0,0.8-0.6,1.4-1.4,1.4s-1.4-0.6-1.4-1.4c0-2.9,0-7.8-1.7-9.2c-0.2-0.1-0.7-0.6-2.1-0.3
		c-2.2,0.4-2.3,6.4-1.6,10.2c0.1,0.7-0.4,1.5-1.1,1.6C96.5,75.9,96.5,75.9,96.4,75.9z"/>
</g>
<g>
	<path class="st1" d="M89.5,73.2c-0.7,0-1.4-0.6-1.4-1.3c-0.1-5.6,1.2-8.7,4.1-9.3c2.2-0.7,4.5,0.2,5.6,2.2c0,0,0,0.1,0,0.1
		c1,2,1.5,4.2,1.4,6.4c0,0.8-0.6,1.3-1.4,1.3c0,0,0,0,0,0c-0.8,0-1.4-0.6-1.3-1.4c0-1.8-0.4-3.5-1.1-5.1c-0.5-0.8-1.5-1.2-2.5-0.9
		c0,0-0.1,0-0.1,0c-1.4,0.3-2.1,2.7-2,6.6C90.8,72.5,90.2,73.2,89.5,73.2C89.5,73.2,89.5,73.2,89.5,73.2z"/>
</g>
<g>
	<path class="st1" d="M72.1,99.1c-0.3,0-0.6-0.1-0.9-0.3c-0.3-0.3-0.5-0.7-0.5-1.1V69.6c0-0.7,0.5-1.3,1.2-1.4l17.2-1.8
		c0.4,0,0.8,0.1,1.1,0.3c0.3,0.3,0.5,0.6,0.5,1v4c0,0.8-0.6,1.4-1.4,1.4S88,72.6,88,71.8v-2.5l-14.5,1.5v25.2l11.8-2.5
		c0.7-0.2,1.5,0.3,1.6,1.1c0.2,0.7-0.3,1.5-1.1,1.6l-13.4,2.8C72.3,99.1,72.2,99.1,72.1,99.1z"/>
</g>
<g>
	<path class="st1" d="M72.1,99.1c-0.1,0-0.1,0-0.2,0l-6.4-0.9c-0.7-0.1-1.2-0.7-1.2-1.4V69.6c0-0.8,0.6-1.4,1.4-1.4h6.4
		c0.8,0,1.4,0.6,1.4,1.4S72.9,71,72.1,71h-5v24.7l5.2,0.7c0.8,0.1,1.3,0.8,1.2,1.6C73.4,98.6,72.8,99.1,72.1,99.1z"/>
</g>
<g>
	<path class="st1" d="M76.6,73.7c-0.7,0-1.2-0.5-1.4-1.1c-0.2-1.2-1.9-12.2,3.8-13.4c1.8-0.4,3.2-0.1,4.4,0.9
		c2.5,2,2.7,6.5,2.7,11.4c0,0.8-0.6,1.4-1.4,1.4s-1.4-0.6-1.4-1.4c0-2.9,0-7.8-1.7-9.2c-0.2-0.1-0.7-0.6-2.1-0.3
		c-2.2,0.4-2.3,6.4-1.6,10.2c0.1,0.7-0.4,1.5-1.1,1.6C76.8,73.7,76.7,73.7,76.6,73.7z"/>
</g>
<g>
	<path class="st1" d="M69.7,71c-0.7,0-1.4-0.6-1.4-1.3c-0.2-5.6,1.2-8.7,4.1-9.3c2.2-0.7,4.5,0.2,5.6,2.2c0,0,0,0.1,0,0.1
		c1,2,1.5,4.2,1.4,6.4c0,0.8-0.6,1.4-1.4,1.4c0,0,0,0,0,0c-0.8,0-1.4-0.6-1.4-1.4c0-1.8-0.4-3.5-1.1-5.1c-0.5-0.8-1.5-1.2-2.5-0.9
		c0,0-0.1,0-0.1,0c-1.3,0.3-2.1,2.7-2,6.6C71.1,70.3,70.5,71,69.7,71C69.7,71,69.7,71,69.7,71z"/>
</g>
<g>
	<path class="st1" d="M44.9,80.5c-0.3,0-0.6-0.1-0.8-0.3c-0.3-0.3-0.5-0.7-0.5-1.1v-22c0-0.6,0.4-1.2,1-1.3l12.1-3.3
		c0.7-0.2,1.5,0.2,1.7,1c0.2,0.7-0.2,1.5-1,1.7l-11.1,3v19.1l10.3-2.8c0.7-0.2,1.5,0.2,1.7,1s-0.2,1.5-1,1.7l-12.1,3.3
		C45.1,80.5,45,80.5,44.9,80.5z"/>
</g>
<g>
	<path class="st1" d="M97.6,72.6c-0.8,0-1.4-0.6-1.4-1.4v-13l-11.1-3c-0.7-0.2-1.2-1-1-1.7c0.2-0.7,1-1.2,1.7-1l12.1,3.3
		c0.6,0.2,1,0.7,1,1.3v14.1C99,72,98.3,72.6,97.6,72.6z"/>
</g>
</svg>
