<?xml version="1.0" encoding="utf-8"?>
<!-- Generator: Adobe Illustrator 22.0.0, SVG Export Plug-In . SVG Version: 6.00 Build 0)  -->
<svg version="1.1" id="Capa_1" xmlns="http://www.w3.org/2000/svg" xmlns:xlink="http://www.w3.org/1999/xlink" x="0px" y="0px"
	 viewBox="0 0 127 107" style="enable-background:new 0 0 127 107;" xml:space="preserve">
<style type="text/css">
	.st0{fill:#F6C508;}
	.st1{fill:#001E58;}
</style>
<title>bono-verde</title>
<rect x="50.1" y="46.2" class="st0" width="71.5" height="55.3"/>
<g>
	<path class="st1" d="M104.8,25.5L97,23.4c-0.1,0-0.3-0.1-0.4-0.1c-0.3,0-0.7,0.1-1,0.3c-0.2-0.3-0.5-0.6-1-0.7l-7.8-2.1
		c-0.1,0-0.3-0.1-0.4-0.1c-0.4,0-0.7,0.1-1,0.4c-0.4,0.3-0.6,0.8-0.6,1.3v7c0,0.7,0.5,1.4,1.2,1.6l0.2,0.1c-0.3,0-0.6,0.1-0.8,0.3
		c-0.4,0.3-0.7,0.8-0.7,1.3v7c0,0.7,0.5,1.4,1.2,1.6l0.2,0.1c-0.3,0-0.6,0.1-0.8,0.3c-0.4,0.3-0.7,0.8-0.7,1.3v7
		c0,0.7,0.5,1.4,1.2,1.6l0.2,0.1c-0.3,0-0.6,0.1-0.8,0.3c-0.4,0.3-0.7,0.8-0.7,1.3v7c0,0.7,0.5,1.4,1.2,1.6l7.8,2.2
		c0.1,0,0.3,0.1,0.5,0.1c0.3,0,0.5-0.1,0.7-0.2c0.2,0.6,0.6,1,1.1,1.2l7.8,2.2c0.1,0,0.3,0.1,0.5,0.1c0.4,0,0.7-0.1,1-0.3
		c0.4-0.3,0.7-0.8,0.7-1.3v-7.3c0-0.7-0.5-1.4-1.2-1.6c0.2-0.1,0.4-0.1,0.5-0.3c0.4-0.3,0.7-0.8,0.7-1.3v-7.3c0-0.7-0.5-1.4-1.2-1.6
		c0.2-0.1,0.4-0.1,0.5-0.3c0.4-0.3,0.7-0.8,0.7-1.3v-7.3c0-0.7-0.5-1.4-1.2-1.6c0.2-0.1,0.4-0.1,0.5-0.3c0.4-0.3,0.7-0.8,0.7-1.3
		v-7.3C106,26.3,105.5,25.7,104.8,25.5z M102.7,59.9v3.8l-4.5-1.3v-3.7L102.7,59.9z M92.5,56.8v3.6L88,59.2v-3.5L92.5,56.8z
		 M98.2,51.9v-3.7l4.5,1.2v3.8L98.2,51.9z M92.5,46.5v3.6L88,48.9v-3.5L92.5,46.5z M98.2,41.4v-3.7l4.5,1.2v3.8L98.2,41.4z
		 M92.5,36.2v3.6L88,38.6V35L92.5,36.2z M88,28.2v-3.5l4.5,1.2v3.6L88,28.2z M98.2,30.9v-3.7l4.5,1.2v3.8L98.2,30.9z"/>
	<path class="st1" d="M116.3,83.4h-2V23.9c0-0.7-0.5-1.4-1.2-1.6l-29.4-8.8c0,0,0,0-0.1,0l-5.2-1.2c-0.1,0-0.1,0-0.2,0
		c0,0-0.1,0-0.1,0c0,0-0.1,0-0.1,0c0,0,0,0-0.1,0c-0.1,0-0.2,0-0.2,0c-0.1,0-0.1,0-0.2,0l-33.8,9.9c-0.7,0.2-1.2,0.9-1.2,1.6v30.9
		l-28.2,7.9c-0.7,0.2-1.2,0.9-1.2,1.6v19h-2c-1.9,0-3.4,1.5-3.4,3.4s1.5,3.4,3.3,3.4l52.6,2.3c0,0,0,0,0,0c0,0,0,0,0,0l52.5-2.3
		c1.8,0,3.3-1.5,3.3-3.4C119.7,84.9,118.2,83.4,116.3,83.4z M79.8,83.4V16.1l3,0.7l28.2,8.4v58.2H79.8z M16.5,83.4V65.7l1-0.3
		c-0.2,0.3-0.4,0.7-0.4,1.1v16.9H16.5z M40.1,61.7v21.7h-7.8V63.9L40.1,61.7z M28.9,62.6v20.8h-0.7V64.3c0-0.5-0.2-1-0.7-1.3
		c-0.1-0.1-0.3-0.2-0.5-0.2l1.9-0.5C28.9,62.3,28.9,62.4,28.9,62.6z M24.9,66.5v16.9h-4.3V67.7L24.9,66.5z M63.2,30.3h3.9V31h-3.9
		c-0.9,0-1.7,0.8-1.7,1.7v3.9h-0.7v-3.9c0-0.9-0.8-1.7-1.7-1.7h-3.9v-0.7h3.9c0.9,0,1.7-0.8,1.7-1.7v-3.9h0.7v3.9
		C61.5,29.6,62.3,30.3,63.2,30.3z M57.5,23V27h-3.9c-0.9,0-1.7,0.8-1.7,1.7v4c0,0.9,0.8,1.7,1.7,1.7h3.9v3.9c0,0.9,0.8,1.7,1.7,1.7
		h4c0.9,0,1.7-0.8,1.7-1.7v-3.9h3.9c0.9,0,1.7-0.8,1.7-1.7v-4c0-0.9-0.8-1.7-1.7-1.7h-3.9V23c0-0.9-0.8-1.7-1.7-1.7h-4
		c-0.1,0-0.2,0-0.3,0l17.5-5.1V56l-14.8-6c-0.1,0-0.2-0.1-0.2-0.1c-0.1,0-0.2,0-0.3,0l-0.1,0c-0.1,0-0.1,0-0.2,0c-0.1,0-0.2,0-0.2,0
		L46,53.9V25.2l12.5-3.7C57.9,21.8,57.5,22.4,57.5,23z M62.6,83.4V54l1,0.4c-0.3,0.3-0.5,0.8-0.5,1.2v27.8H62.6z M66.4,83.4V58.1
		l7.8,3.2v22.1H66.4z M58.7,53.9l0.6-0.2v29.7h-0.1V55C59.2,54.6,59,54.2,58.7,53.9z M55.8,57.3v26.1H48V59.5L55.8,57.3z
		 M116.3,86.7C116.3,86.8,116.3,86.8,116.3,86.7L63.8,89l-52.5-2.3l-0.1,0l3.6,0c0,0,0,0,0,0h4h7.7h4.1h11.2h2.5h2h11.2h3.5h3.8
		h11.2h1.9h0.2c0,0,0,0,0.1,0h34.5H116.3z"/>
</g>
</svg>
