<?xml version="1.0" encoding="utf-8"?>
<!-- Generator: Adobe Illustrator 22.0.0, SVG Export Plug-In . SVG Version: 6.00 Build 0)  -->
<svg version="1.1" id="Capa_1" xmlns="http://www.w3.org/2000/svg" xmlns:xlink="http://www.w3.org/1999/xlink" x="0px" y="0px"
	 viewBox="0 0 127 107" style="enable-background:new 0 0 127 107;" xml:space="preserve">
<style type="text/css">
	.st0{fill:#F6C508;}
	.st1{fill:#001E58;}
</style>
<title>bono-verde</title>
<rect x="47.6" y="45.2" class="st0" width="71.5" height="55.3"/>
<g>
	<path class="st1" d="M99.4,53.9v-5.3c0-2.4-1.9-4.3-4.3-4.3H72.3c-0.1,0-0.3,0-0.4,0.1c-0.5-3.4-3.4-6.1-6.9-6.1s-6.5,2.7-6.9,6.1
		c-0.1-0.1-0.3-0.1-0.4-0.1H35c-2.4,0-4.3,1.9-4.3,4.3v5.3C29.1,54.5,28,56,28,57.8v13.6c0,2.3,1.9,4.2,4.1,4.2h4.1v1
		c-0.2,0.5-0.3,1-0.3,1.5c0,2.3,1.9,4.2,4.3,4.2s4.3-1.9,4.3-4.2c0-0.5-0.1-1-0.3-1.5v-1h8.1c0.1,0,0.2,0,0.2,0l3.8,16.3
		c0.5,2.2,2.4,3.8,4.6,3.8l0.2,0c0.3,0,0.6,0,0.9-0.1c0.8-0.2,1.6-0.6,2.2-1.2c0.1-0.1,0.1-0.1,0.1-0.2c0.6,0.7,1.5,1.2,2.4,1.4
		c0.3,0.1,0.6,0.1,0.9,0.1l0.2,0c2.2,0,4.2-1.6,4.7-3.8l3.9-16.4c0.2,0.1,0.3,0.2,0.5,0.2h8.5v1c-0.2,0.5-0.3,1-0.3,1.5
		c0,2.3,1.9,4.2,4.3,4.2S94,80.4,94,78c0-0.5-0.1-1-0.3-1.5v-1h4.1c2.3,0,4.1-1.9,4.1-4.2V57.8C102,56,100.9,54.5,99.4,53.9z
		 M90.6,77.7c0,0.1,0.1,0.2,0.1,0.3c0,0.5-0.4,0.9-1,0.9c-0.6,0-1-0.4-1-0.9c0-0.1,0-0.2,0.1-0.3c0.1-0.3,0.2-0.6,0.2-1v-1.2h1.5
		v1.2C90.4,77.1,90.5,77.4,90.6,77.7z M41.3,77.7c0,0.1,0.1,0.2,0.1,0.3c0,0.5-0.4,0.9-1,0.9c-0.6,0-1-0.4-1-0.9
		c0-0.1,0-0.2,0.1-0.3c0.1-0.3,0.2-0.6,0.2-1v-1.2h1.5v1.2C41.1,77.1,41.1,77.4,41.3,77.7z M33.3,57.8v14.4h-1.2
		c-0.4,0-0.8-0.4-0.8-0.9V57.8c0-0.5,0.4-0.9,0.8-0.9h0.4C33,56.9,33.3,57.3,33.3,57.8z M73.6,67c-0.3-0.1-0.7-0.1-1-0.1
		c-1.6,0-3,0.8-3.9,2c0,0,0,0,0,0c-0.2-0.2-0.5-0.3-0.8-0.3c-0.1,0-0.2,0-0.3,0l-1,0.3v-7.1l7.3-2.6v0.2c-0.8,0.6-1.3,1.7-1.3,2.8
		v0.5c0,1.2,0.5,2.2,1.3,2.8v1.5C73.9,67.1,73.8,67.1,73.6,67z M65,52.2c1.1,0,2.1-0.3,3-0.7c0.1,0.3,0.3,0.6,0.5,0.7
		c1.7,0.8,3,2.2,3.8,4l-7,2.5c-0.1,0-0.2,0.1-0.5,0.1c-0.2,0-0.4,0-0.4-0.1l-7-2.4c0.8-1.9,2.2-3.4,3.9-4.2c0.3-0.1,0.5-0.4,0.5-0.7
		C62.9,52,63.9,52.2,65,52.2z M56,66.9v-1.2c0.8-0.6,1.3-1.7,1.3-2.8v-0.5c0-1.2-0.5-2.2-1.3-2.8v0l7.3,2.5v7l-1.8-0.6
		c-0.1,0-0.2,0-0.3,0c-0.3,0-0.6,0.1-0.8,0.4c0,0,0,0,0,0.1c-0.9-1.1-2.2-1.8-3.7-1.8C56.5,66.9,56.2,66.9,56,66.9
		C56,67,56,66.9,56,66.9z M61.7,71.9l2.2,0.7c0.4,0.1,0.8,0.2,1.1,0.2c0.3,0,0.7,0,1.1-0.1l1.6-0.5l-2.9,12.4L61.7,71.9z M65,48.9
		c-2,0-3.7-1.6-3.7-3.7s1.6-3.7,3.7-3.7s3.7,1.6,3.7,3.7S67,48.9,65,48.9z M66.7,90.4l4.5-19c0.2-0.7,0.7-1.2,1.4-1.2
		c0.1,0,0.2,0,0.3,0c0.8,0.2,1.3,1,1.1,1.8l-4.5,19c-0.2,0.7-0.7,1.2-1.4,1.2l-0.1,0c-0.1,0-0.1,0-0.2,0C67,92,66.5,91.2,66.7,90.4z
		 M34,53.9v-5.3c0-0.5,0.4-1,1-1h8.4v16h-6.7v-5.8C36.7,56,35.6,54.5,34,53.9z M36.7,72.3v-5.3h15.7c0.1,0,0.2,0,0.3-0.1v0.6
		c0,0.2,0,0.3,0.1,0.4c0.1,0.3,0.3,0.5,0.5,0.7c-0.9,1-1.3,2.4-1.2,3.8H36.7z M63.2,91.2c-0.3,0-0.6,0.2-0.8,0.4
		c-0.1,0.2-0.4,0.5-0.8,0.6c-0.1,0-0.2,0-0.3,0l-0.1,0c-0.6,0-1.2-0.5-1.4-1.2l-4.5-19c-0.2-0.8,0.3-1.6,1.1-1.8c0.1,0,0.2,0,0.3,0
		c0.7,0,1.3,0.5,1.4,1.2l4.2,17.7c0.1,0.5,0.5,0.8,1,0.8c0,0,0.1,0,0.1,0c-0.1,0.5-0.1,0.9,0,1.4c0,0,0,0,0,0
		C63.3,91.2,63.3,91.2,63.2,91.2z M76.5,69c0.2-0.1,0.4-0.2,0.6-0.4c0.2-0.3,0.3-0.7,0.3-1v-0.7c0.1,0,0.2,0.1,0.3,0.1h15.7v5.3
		H77.5c-0.1,0-0.1,0-0.2,0C77.4,71.1,77.1,69.9,76.5,69z M98.7,57.8v13.6c0,0.5-0.4,0.9-0.8,0.9h-1.2V57.8c0-0.5,0.4-0.9,0.8-0.9
		h0.4C98.3,56.9,98.7,57.3,98.7,57.8z M96,48.5v5.3c-1.6,0.6-2.7,2.1-2.7,3.9v5.8h-6.7v-16H95C95.6,47.6,96,48,96,48.5z M72.2,47.6
		h11.1v16h-4.7c0-0.2,0.1-0.5,0.1-0.8v-0.5c0-1.2-0.5-2.2-1.3-2.8v-2.7c0-0.9-0.7-1.6-1.6-1.6c-0.1,0-0.1,0-0.2,0
		c-1-2.4-2.8-4.4-4.9-5.6c0,0-0.1,0-0.1,0c0.5-0.6,0.9-1.4,1.2-2.2C71.8,47.5,72,47.6,72.2,47.6z M59.5,49.5c0,0-0.1,0-0.1,0
		c-2.3,1.3-4,3.3-5.1,5.8c0,0-0.1,0-0.1,0c-0.4,0-0.8,0.2-1.1,0.5c-0.3,0.3-0.4,0.7-0.4,1.1v2.5c-0.8,0.6-1.3,1.7-1.3,2.8v0.5
		c0,0.3,0,0.5,0.1,0.8h-4.7v-16h11.1c0.2,0,0.4-0.1,0.5-0.2C58.6,48.2,59,48.9,59.5,49.5z"/>
	<path class="st1" d="M104.4,8.2H25.7c-2.4,0-4.3,1.9-4.3,4.3v54c0,0.9,0.7,1.7,1.7,1.7s1.7-0.7,1.7-1.7v-54c0-0.6,0.4-1,1-1h78.7
		c0.6,0,1,0.4,1,1v81.4c0,0.9,0.7,1.7,1.7,1.7s1.7-0.7,1.7-1.7V12.6C108.7,10.2,106.7,8.2,104.4,8.2z"/>
	<path class="st1" d="M102.4,24.9H96v-9.7c0-0.9-0.7-1.7-1.7-1.7s-1.7,0.7-1.7,1.7v9.7h-7.3v-9.7c0-0.9-0.7-1.7-1.7-1.7
		c-0.9,0-1.7,0.7-1.7,1.7v9.7h-7.3v-9.7c0-0.9-0.7-1.7-1.7-1.7s-1.7,0.7-1.7,1.7v9.7H65c-0.9,0-1.7,0.7-1.7,1.7
		c0,0.9,0.7,1.7,1.7,1.7h37.3c0.9,0,1.7-0.7,1.7-1.7C104,25.7,103.3,24.9,102.4,24.9z"/>
	<path class="st1" d="M37,35.6c6.4,0,11.7-5.2,11.7-11.7c0-3.1-1.2-6-3.4-8.2c0,0,0,0,0,0c-2.2-2.2-5.1-3.4-8.2-3.4
		c-6.4,0-11.7,5.2-11.7,11.7S30.6,35.6,37,35.6z M29,22.2h-0.2c0.2-1,0.6-2,1.2-2.9l0.1,0.1c0.3,0.3,0.7,0.5,1.2,0.5
		s0.9-0.2,1.2-0.5c0.6-0.6,0.6-1.7,0-2.4L32.4,17c0.9-0.6,1.9-1,2.9-1.2v0.2c0,0.9,0.7,1.7,1.7,1.7c0.9,0,1.7-0.7,1.7-1.7v-0.2
		c1,0.2,2,0.6,2.9,1.2l-0.1,0.1c-0.6,0.6-0.6,1.7,0,2.4c0.3,0.3,0.7,0.5,1.2,0.5c0.4,0,0.9-0.2,1.2-0.5l0.1-0.1
		c0.6,0.9,1,1.9,1.2,2.9H45c-0.5,0-1,0.3-1.3,0.7c-0.3-0.4-0.8-0.7-1.3-0.7h-4.7l-2.1-2.2c-0.3-0.3-0.7-0.5-1.2-0.5
		c-0.4,0-0.9,0.2-1.2,0.5c-0.7,0.6-0.7,1.7,0,2.4l2.6,2.7c0.3,0.3,0.7,0.5,1.2,0.5h5.4c0.5,0,1-0.3,1.3-0.7c0.3,0.4,0.8,0.7,1.3,0.7
		h0.2c-0.2,1-0.6,2-1.2,2.9l-0.1-0.1c-0.3-0.3-0.7-0.5-1.2-0.5s-0.9,0.2-1.2,0.5c-0.6,0.7-0.6,1.7,0,2.4l0.1,0.1
		c-0.9,0.6-1.9,1-2.9,1.2v-0.2c0-0.9-0.7-1.7-1.7-1.7c-0.9,0-1.7,0.7-1.7,1.7v0.2c-1-0.2-2-0.6-2.9-1.2l0.1-0.1
		c0.6-0.6,0.6-1.7,0-2.4c-0.3-0.3-0.7-0.5-1.2-0.5s-0.9,0.2-1.2,0.5l-0.1,0.1c-0.6-0.9-1-1.9-1.2-2.9H29c0.9,0,1.7-0.7,1.7-1.7
		S29.9,22.2,29,22.2z"/>
</g>
</svg>
