<?xml version="1.0" encoding="utf-8"?>
<!-- Generator: Adobe Illustrator 22.0.0, SVG Export Plug-In . SVG Version: 6.00 Build 0)  -->
<svg version="1.1" id="Capa_1" xmlns="http://www.w3.org/2000/svg" xmlns:xlink="http://www.w3.org/1999/xlink" x="0px" y="0px"
	 viewBox="0 0 127 107" style="enable-background:new 0 0 127 107;" xml:space="preserve">
<style type="text/css">
	.st0{fill:#F6C508;}
	.st1{fill:#001E58;}
</style>
<title>bono-verde</title>
<rect x="7.8" y="6.6" class="st0" width="71.5" height="55.3"/>
<g>
	<path class="st1" d="M100,47.3H85.2c-0.6-2.8-2.8-5.1-5.7-5.7v-0.5h1.1c0.8,0,1.5-0.7,1.5-1.5s-0.7-1.5-1.5-1.5h-5.1
		c-0.8,0-1.5,0.7-1.5,1.5s0.7,1.5,1.5,1.5h1.1v0.5c-2.8,0.6-5.1,2.8-5.7,5.7h-6.6v-2.2c0-4.5-1.7-8.7-4.9-11.9
		c-1.1-1.1-2.3-2-3.6-2.8c-0.7-0.4-1.5-0.8-2.3-1.1c2.8-2,4.6-5.2,4.6-8.7c0-5.8-4.8-10.6-10.6-10.6s-10.6,4.8-10.6,10.6
		c0,3.5,1.7,6.7,4.6,8.7c-0.8,0.3-1.5,0.6-2.2,1h-0.1L39,30.5c-5.2,3-8.5,8.6-8.5,14.6v2.2h-9.4c-0.8,0-1.5,0.7-1.5,1.5v19.9
		c0,0.8,0.7,1.5,1.5,1.5h4.5v21.4c0,0.8,0.7,1.5,1.5,1.5H94c0.8,0,1.5-0.7,1.5-1.5V70.2h4.5c0.8,0,1.5-0.7,1.5-1.5V48.8
		C101.5,47.9,100.8,47.3,100,47.3z M92.5,70.2v19.9H28.7V70.2H92.5z M56,42.5c-0.8,0-1.5,0.7-1.5,1.5v3.3h-5.6V37.1l0.1,0
		c0.3,0,0.5-0.1,0.8-0.2c0.1,0,0.3-0.1,0.4-0.1c0.3-0.1,0.5-0.2,0.8-0.2l0.1,0c0.1,0,0.2-0.1,0.2-0.1c0.3-0.1,0.7-0.3,1.1-0.5
		c0.3-0.2,0.7-0.4,1-0.6c0.1,0,0.1-0.1,0.2-0.1l0.1-0.1c0.2-0.2,0.4-0.3,0.7-0.5c0.1-0.1,0.2-0.2,0.3-0.3c0.2-0.2,0.4-0.4,0.6-0.6
		l0.1-0.1c0,0,0,0,0,0c0.7,0.5,1.3,1,1.9,1.6c2.6,2.6,4,6.1,4,9.8v2.2h-3.8V44C57.5,43.2,56.8,42.5,56,42.5z M45.3,33.9
		c-0.2,0-0.3-0.1-0.5-0.2c-0.1,0-0.2-0.1-0.3-0.1c-0.2-0.1-0.3-0.1-0.5-0.2c-0.1,0-0.2-0.1-0.3-0.1c-0.2-0.1-0.3-0.2-0.5-0.3
		L43,32.8c-0.2-0.2-0.4-0.3-0.7-0.5c0,0,0,0-0.1-0.1c1.6-0.6,3.3-1,5.1-1l0.1,0l0-0.5l0.1,0.5c1.7,0,3.5,0.3,5.1,1c0,0,0,0-0.1,0.1
		c-0.2,0.2-0.4,0.4-0.7,0.5L51.6,33c-0.2,0.1-0.3,0.2-0.5,0.3c-0.1,0-0.1,0.1-0.3,0.1c-0.2,0.1-0.3,0.2-0.5,0.2
		c-0.1,0-0.2,0.1-0.3,0.1c-0.2,0.1-0.3,0.1-0.6,0.2c-0.1,0-0.2,0-0.3,0.1c-0.2,0-0.4,0.1-0.6,0.1l-0.3,0c-0.6,0.1-1.2,0.1-1.8,0
		l-0.3,0c-0.2,0-0.4-0.1-0.6-0.1C45.6,34,45.5,34,45.3,33.9z M40.2,34.4c0.1,0.1,0.2,0.2,0.3,0.3c0.2,0.2,0.4,0.4,0.6,0.5l0.1,0.1
		c0.1,0.1,0.1,0.1,0.2,0.1c0.3,0.2,0.7,0.4,1.1,0.7c0.3,0.2,0.6,0.3,1,0.4c0.1,0,0.2,0.1,0.3,0.1l0.1,0c0.3,0.1,0.5,0.2,0.8,0.2
		c0.1,0,0.3,0.1,0.4,0.1c0.3,0.1,0.5,0.1,0.8,0.2l0.1,0v10.1h-5.5V44c0-0.8-0.7-1.5-1.5-1.5s-1.5,0.7-1.5,1.5v3.3h-3.8v-2.2
		c0-4.6,2.2-8.8,6-11.4c0,0,0,0,0,0l0.1,0.1C39.8,34,40,34.2,40.2,34.4z M47.4,13.1c4.2,0,7.6,3.4,7.6,7.6c0,4.2-3.4,7.6-7.6,7.6
		s-7.6-3.4-7.6-7.6C39.8,16.5,43.2,13.1,47.4,13.1z M74,47.3c0.6-1.6,2.2-2.8,4-2.8l0,0l0.2,0c1.8,0,3.3,1.2,4,2.8H74z M98.5,50.3
		v16.9H22.7V50.3H98.5z"/>
	<path class="st1" d="M38.4,60.2h44.4c0.8,0,1.5-0.7,1.5-1.5s-0.7-1.5-1.5-1.5H38.4c-0.8,0-1.5,0.7-1.5,1.5S37.6,60.2,38.4,60.2z"/>
</g>
</svg>
