<?xml version="1.0" encoding="utf-8"?>
<!-- Generator: Adobe Illustrator 22.0.0, SVG Export Plug-In . SVG Version: 6.00 Build 0)  -->
<svg version="1.1" id="Capa_1" xmlns="http://www.w3.org/2000/svg" xmlns:xlink="http://www.w3.org/1999/xlink" x="0px" y="0px"
	 viewBox="0 0 127 107" style="enable-background:new 0 0 127 107;" xml:space="preserve">
<style type="text/css">
	.st0{fill:#F6C508;}
	.st1{fill:#001E58;}
</style>
<title>bono-verde</title>
<rect x="5" y="15.9" class="st0" width="71.5" height="55.3"/>
<path class="st1" d="M110.2,100.3h-4.4c-2.6,0-5-0.9-7-2.6l-8.1-7.2V68.8c10.7-0.8,18.8-10.2,17.9-20.9c-0.4-5.4-3-10.4-7.3-13.7
	c4.8-6.7,3.3-16.1-3.4-20.9s-16.1-3.3-20.9,3.4c-3.8,5.2-3.8,12.3,0,17.5c-8.4,6.7-9.8,19-3.1,27.4c3.4,4.2,8.3,6.9,13.7,7.3v19.1
	l-9.1-8.1c-1.7-1.5-3.7-2.5-5.9-3V65.9c0-4.1-3.3-7.5-7.5-7.5h-3v-21h4.7L42.8,7.8L18.6,37.4h4.7v62.9h-3v3h92.9v-3H110.2z
	 M59.3,100.3h-33v-21h33L59.3,100.3z M26.3,76.4v-21h3v21H26.3z M32.3,76.4v-21h3v21H32.3z M38.3,76.4v-21h3v21H38.3z M44.3,76.4
	v-21h3v21H44.3z M50.3,76.4v-21h3v21H50.3z M59.3,76.4h-3v-21h3V76.4z M59.3,52.4h-33v-15h33V52.4z M24.9,34.4l17.8-21.8l17.8,21.8
	H24.9z M62.2,61.4h3c2.5,0,4.5,2,4.5,4.5h-7.5L62.2,61.4z M62.2,68.8h7.5v7.5h-7.5V68.8z M87.7,100.3H62.3v-21h7.5
	c2.6,0,5,0.9,7,2.7l11.1,9.8L87.7,100.3L87.7,100.3z M96.2,42l-6.9,2.8L82.3,42l-1.1,2.8l6.6,2.6v18.4C78.7,65,72,56.9,72.9,47.9
	c0.5-4.9,3.1-9.4,7.2-12.2l1.4-1l-1.2-1.3c-4.4-4.9-4.1-12.5,0.8-16.9c4.9-4.4,12.5-4.1,16.9,0.8c4.1,4.6,4.1,11.5,0,16.1L97,34.7
	l1.4,1c7.6,5.1,9.6,15.3,4.5,22.9c-2.8,4.1-7.2,6.8-12.2,7.2V47.4l6.6-2.6L96.2,42z M90.7,100.3L90.7,100.3v-5.8l6.1,5.4l0.5,0.4
	H90.7z"/>
</svg>
