<?xml version="1.0" encoding="utf-8"?>
<!-- Generator: Adobe Illustrator 22.0.0, SVG Export Plug-In . SVG Version: 6.00 Build 0)  -->
<svg version="1.1" id="Capa_1" xmlns="http://www.w3.org/2000/svg" xmlns:xlink="http://www.w3.org/1999/xlink" x="0px" y="0px"
	 viewBox="0 0 127 107" style="enable-background:new 0 0 127 107;" xml:space="preserve">
<style type="text/css">
	.st0{fill:#F6C508;}
	.st1{fill:#001E58;}
</style>
<title>bono-verde</title>
<rect x="41.7" y="19.6" class="st0" width="71.5" height="55.3"/>
<g>
	<g>
		<path class="st1" d="M108.1,27.6c-0.1-0.1-0.3-0.2-0.4-0.2l-48.8,7.5L14.1,28l-4.1-0.7c0,0-0.1,0-0.2,0l0,0
			c-0.1,0-0.2,0.1-0.2,0.2c-0.1,0.1-0.2,0.2-0.2,0.4l0,0v50.6l0,0l0,0c0,0.2,0.1,0.4,0.3,0.5l0,0l2.1,1.1l46.7,24.3
			c0.1,0,0.2,0.1,0.3,0.1l0,0c0.1,0,0.2,0,0.3-0.1L108,79.2c0.2-0.1,0.3-0.3,0.3-0.5l0,0V28l0,0C108.3,27.8,108.2,27.7,108.1,27.6z
			 M24.4,85.1L18,81.8l-5.3-2.7l0,0L19,78l45.8,22.1l-5.9,3.1L24.4,85.1z M72.9,71.7V44.1l6.4-0.7v29.4L72.9,71.7z M80.1,73V43.4
			l7-0.7v31.5L80.1,73z M88.5,74.5V41.9c0-0.4-0.3-0.8-0.8-0.8h-0.1L72,42.7c-0.3,0-0.7,0.3-0.7,0.7v28l-11.8-2V36.3l47-7.5v48.8
			L88.5,74.5z M105,79.1l-5.8,3.1L55.3,71.7l3.5-0.7L105,79.1z M26.9,76.7l7-1.2l44.6,17.5l-6.3,3.3L26.9,76.7z M71.8,96.4l-6.5,3.4
			l-45.6-22l6.4-1.1L71.8,96.4z M34.7,75.2l6.6-1.1l44.2,15.2l-6.4,3.3L34.7,75.2z M42.2,73.9l5.6-1L92,85.8L85.9,89L42.2,73.9z
			 M48.7,72.8l5.5-1l44.4,10.5l-5.9,3.2L48.7,72.8z M11,28.9l47.1,7.5v33.2L11,77.6V28.9z"/>
		<path class="st1" d="M33.5,56.9V46.4c0-0.7-0.5-1.2-1.2-1.3l-13.6-1.2h-0.2c-0.7-0.1-1.3,0.5-1.3,1.2c0,0,0,0,0,0.1v12.6
			c0,0.8,0.7,1.3,1.3,1.3l0,0h0.1l13.7-1C32.9,58.2,33.5,57.5,33.5,56.9z M25.5,51.6h-7v-6.4l6.9,0.7v5.7H25.5z M25.5,57.4L18.5,58
			V52h6.9V57.4z M32.2,51.6h-6.4v-5.7l6.4,0.7V51.6z M32.2,56.9l-6.4,0.4v-5.4h6.4V56.9z"/>
	</g>
</g>
</svg>
