<?xml version="1.0" encoding="utf-8"?>
<!-- Generator: Adobe Illustrator 22.0.0, SVG Export Plug-In . SVG Version: 6.00 Build 0)  -->
<svg version="1.1" id="Capa_1" xmlns="http://www.w3.org/2000/svg" xmlns:xlink="http://www.w3.org/1999/xlink" x="0px" y="0px"
	 viewBox="0 0 127 107" style="enable-background:new 0 0 127 107;" xml:space="preserve">
<style type="text/css">
	.st0{fill:#F6C508;}
	.st1{fill:#001E58;}
</style>
<title>bono-verde</title>
<rect x="41.7" y="19.6" class="st0" width="71.5" height="55.3"/>
<path class="st1" d="M62.3,26.7c5.5,0,9.9-4.4,9.9-9.9s-4.4-9.9-9.9-9.9c-5.5,0-9.9,4.4-9.9,9.9C52.5,22.2,56.9,26.7,62.3,26.7z
	 M62.3,11.9c2.7,0,4.9,2.2,4.9,4.9s-2.2,4.9-4.9,4.9c-2.7,0-4.9-2.2-4.9-4.9C57.5,14.1,59.7,11.9,62.3,11.9z M54.1,28.3h2.3
	c0.7,0,1.3,0.3,1.8,0.7l4.1,4.1l4.1-4.1c0.5-0.5,1.1-0.7,1.8-0.7h2.4c5,0,9,4,9,9v6.4c0,1.4-1.1,2.5-2.5,2.5s-2.5-1.1-2.5-2.5v-6.4
	c0-2.2-1.8-4-4-4h-1.3l-4.4,4.4c-1.4,1.4-3.6,1.4-5,0l-4.4-4.4h-1.3c-2.2,0-4,1.8-4,4v6.4c0,1.4-1.1,2.5-2.5,2.5s-2.5-1.1-2.5-2.5
	v-6.4C45.1,32.4,49.1,28.3,54.1,28.3C54.1,28.3,54.1,28.3,54.1,28.3z M62.3,79.9c5.5,0,10-4.5,10-10c0-5.5-4.5-10-10-10
	s-10,4.5-10,10C52.3,75.5,56.8,79.9,62.3,79.9z M62.3,64.9c2.8,0,5,2.2,5,5s-2.2,5-5,5c-2.8,0-5-2.2-5-5
	C57.3,67.2,59.6,64.9,62.3,64.9C62.3,64.9,62.3,64.9,62.3,64.9L62.3,64.9z M92.7,91.9c0.3,1.3-0.5,2.7-1.9,3c-1.3,0.3-2.7-0.5-3-1.9
	l-9.2-39.2H46.1l-9.2,39.2c-0.3,1.3-1.7,2.2-3,1.9c-1.3-0.3-2.2-1.7-1.9-3l0,0l9.2-39.4c0.5-2.2,2.5-3.7,4.7-3.7h32.8
	c2.2,0,4.2,1.5,4.7,3.7L92.7,91.9z M54.5,81.9h15.3c6.2,0,11.2,5,11.2,11.1v4.5c0,1.4-1.1,2.5-2.5,2.5S76,99,76,97.6v-4.5
	c0-3.4-2.8-6.2-6.2-6.2H54.8c-3.4,0-6.1,2.8-6.1,6.2v4.5c0,1.4-1.1,2.5-2.5,2.5s-2.5-1.1-2.5-2.5v-4.5C43.7,87,48.5,82.1,54.5,81.9
	L54.5,81.9z M89.2,44.8c0,5.3,4.3,9.5,9.5,9.5s9.5-4.3,9.5-9.5s-4.3-9.5-9.5-9.5C93.4,35.3,89.2,39.6,89.2,44.8z M103.2,44.8
	c0,2.5-2,4.5-4.5,4.5c-2.5,0-4.5-2-4.5-4.5c0-2.5,2-4.5,4.5-4.5C101.2,40.3,103.2,42.3,103.2,44.8C103.2,44.8,103.2,44.8,103.2,44.8
	L103.2,44.8z M107,60.4c2.4,2.3,3.8,5.5,3.8,8.8v6.2c0,2.4-2,4.4-4.4,4.4H95.1c-1.4,0-2.5-1.1-2.5-2.5s1.1-2.5,2.5-2.5h10.8v-5.5
	c0-4-3.2-7.2-7.2-7.2c-0.2,0-0.3,0-0.5,0c-1.8,0.1-3.5,1-4.7,2.4c-0.9,1-2.5,1.1-3.5,0.1c-1-0.9-1.1-2.5-0.2-3.5
	c2.1-2.4,5-3.8,8.2-4C101.3,56.9,104.6,58.1,107,60.4L107,60.4z M26,54.3c5.3,0,9.5-4.3,9.5-9.5s-4.3-9.5-9.5-9.5s-9.5,4.3-9.5,9.5
	l0,0C16.5,50.1,20.8,54.3,26,54.3z M26,40.3c2.5,0,4.5,2,4.5,4.5c0,2.5-2,4.5-4.5,4.5s-4.5-2-4.5-4.5l0,0
	C21.5,42.4,23.5,40.3,26,40.3C26,40.3,26,40.3,26,40.3L26,40.3z M13.8,75.4v-6.2c0-3.4,1.4-6.6,3.8-8.8c2.4-2.3,5.7-3.5,9.1-3.3
	c3.1,0.2,6.1,1.6,8.1,4c0.9,1,0.8,2.6-0.2,3.5c-1,0.9-2.6,0.8-3.5-0.2c-1.2-1.4-2.9-2.2-4.7-2.3c-3.9-0.2-7.3,2.7-7.6,6.7
	c0,0.1,0,0.3,0,0.4v5.5h10.8c1.4,0,2.5,1.1,2.5,2.5s-1.1,2.5-2.5,2.5H18.2C15.8,79.8,13.9,77.9,13.8,75.4z"/>
</svg>
