<svg version="1.1" id="Capa_1" xmlns="http://www.w3.org/2000/svg" xmlns:xlink="http://www.w3.org/1999/xlink" x="0px" y="0px"
	 viewBox="0 0 132.7 97.4" style="enable-background:new 0 0 132.7 97.4;" xml:space="preserve">
<style type="text/css">
	.st0{fill:#F6C508;}
	.st1{fill:#001E58;}
</style>
<title>Estacionamiento Bicicletas</title>
<g>
	<rect x="60.7" y="21" class="st0" width="72" height="55.7"/>
	<g>
		<path class="st1" d="M93.1,28.7v-6.5h3.1c3.7,0,6.6-1.8,6.6-6.4v-0.2c0-4.6-2.8-6.3-6.4-6.3h-5.6c-0.7-0.1-1.3,0.4-1.4,1.1
			c0,0,0,0,0,0v18.2c0,0.8,0.9,1.1,1.8,1.1C92.2,29.9,93.1,29.5,93.1,28.7z M93.1,12.6h3.1c1.8,0,2.9,1,2.9,3.2v0.3
			c0,2.2-1.1,3.2-2.9,3.2h-3.1V12.6z"/>
		<path class="st1" d="M119.1,92.6H113c0,0,0,0,0,0V76.2c0-5.3-3.7-9.7-8.6-11c-1-2.2-2.4-4.1-4.1-5.7V40.2h11
			c2.3,0,4.1-1.8,4.1-4.1v-32c0-2.3-1.8-4.1-4.1-4.1h-32c-2.3,0-4.1,1.8-4.1,4.1v12.1c0.1,0.9,0.9,1.6,1.8,1.5
			c0.8-0.1,1.5-0.7,1.5-1.5V4.1c0-0.4,0.4-0.8,0.8-0.8h32c0.4,0,0.8,0.4,0.8,0.8v32c0,0.4-0.4,0.8-0.8,0.8h-32
			c-0.4,0-0.8-0.4-0.8-0.8v-9.2c-0.1-0.9-0.9-1.6-1.8-1.5c-0.8,0.1-1.5,0.7-1.5,1.5v9.2c0,2.3,1.8,4.1,4.1,4.1h12.4v15.3
			c-1.6-0.2-3.3-0.2-5,0c-1.8,0.3-3.6,0.9-5.1,1.7L75,47.6l7.4-1.2c1.1-0.2,1.8-1.2,1.6-2.3c-0.2-1.1-1.2-1.8-2.3-1.6l-10.5,1.7
			c-0.7,0.1-1.2,0.5-1.5,1.2c-0.3,0.6-0.2,1.3,0.2,1.9l2.8,4c-0.1,0.1-0.2,0.2-0.3,0.4L52.4,55l-2.5-3.5l5.6-0.9
			c1.1-0.2,1.8-1.2,1.6-2.3c-0.2-1.1-1.2-1.8-2.3-1.6L46,48.1c-0.7,0.1-1.2,0.6-1.5,1.2c-0.3,0.6-0.2,1.4,0.2,1.9l4.8,6.7
			c0,0,0,0,0,0L47,63.4c-2.3-0.7-4.7-0.9-7.2-0.4c-8.9,1.4-15,9.9-13.5,18.8c1.5,9,9.9,15.1,18.8,13.7c8.5-1.4,14.4-9,13.8-17.4
			l6.2-0.9c0.7-0.1,1.3-0.6,1.5-1.2l8.7-20.9c0,0,0,0,0,0l3.1,4.4c-4,3.6-6.2,9.2-5.3,14.9c1.4,8.3,8.8,14.2,17.1,13.7v4.4
			c0,0,0,0,0,0h-6.3c-1.1,0-2,0.9-2,2c0,1.1,0.9,2,2,2h35.2c1.1,0,2-0.9,2-2C121.1,93.4,120.2,92.6,119.1,92.6z M49.1,68.4
			c2.4,1.5,4.3,3.7,5.3,6.4l-8.8,1.3L49.1,68.4z M44.5,91.8c-6.9,1.1-13.5-3.6-14.6-10.6c-1.1-6.9,3.6-13.5,10.5-14.6
			c1.8-0.3,3.5-0.2,5.1,0.2l-4.9,10.9c-0.3,0.7-0.2,1.4,0.2,2c0.4,0.5,1,0.8,1.6,0.8c0.1,0,0.2,0,0.3,0l12.5-1.9
			C55.4,85,51,90.8,44.5,91.8z M58.2,74.2c-1.3-4-4-7.3-7.5-9.3l1.5-3.4L61,73.8L58.2,74.2z M64.2,71.4l-9.3-12.9L70.7,56L64.2,71.4
			z M101.6,69.4c0.1,0,0.2,0,0.2,0c0,0.1,0.1,0.2,0.1,0.3c0.9,5.7-2.2,11.1-7.1,13.5v-7C94.8,72.5,97.9,69.4,101.6,69.4z M95,40.2h2
			v17c-0.6-0.3-1.3-0.7-2-0.9V40.2z M90.2,76.2v8.2c-6.5,0.4-12.4-4-13.5-10.6c-0.7-4.3,0.9-8.5,3.8-11.3l7,10.1
			c0.4,0.6,1,0.9,1.6,0.9c0.4,0,0.8-0.1,1.1-0.3c0.9-0.6,1.1-1.8,0.5-2.7l-7-10.1c1.1-0.5,2.3-1,3.6-1.2c5.2-0.8,10.2,1.6,12.8,5.9
			C94.6,65.7,90.2,70.5,90.2,76.2z M94.8,92.6C94.8,92.5,94.8,92.5,94.8,92.6l0-5.3c6.8-2.4,11.4-9.1,11-16.4
			c1.6,1.2,2.7,3.2,2.7,5.4v16.3c0,0,0,0,0,0H94.8z"/>
	</g>
</g>
</svg>