<?xml version="1.0" encoding="UTF-8"?> <svg xmlns="http://www.w3.org/2000/svg" id="Capa_1" data-name="Capa 1" viewBox="0 0 150 120"><defs><style>.cls-1{fill:#f6c508;}.cls-2{fill:#001e58;}</style></defs><title>baile</title><rect class="cls-1" x="33" y="1" width="92" height="85"></rect><path class="cls-2" d="M105.89,38.48,90.27,44.73a1.7,1.7,0,0,0,1.26,3.16l6.92-2.78,2.19,5.47L91.84,55a1.7,1.7,0,0,0-.93,1.35L89.37,71.8H73.9a1.7,1.7,0,0,0,0,3.4H89.35L90.4,86.78a1.7,1.7,0,0,0,1.69,1.55h.16a1.7,1.7,0,0,0,1.54-1.85h0l-1.18-13L94.2,57.59,113.51,48a6.76,6.76,0,0,0,3.55-7.73l-3.26-13a5.21,5.21,0,0,0-10.1,2.52Zm2.42-11.78A1.81,1.81,0,0,1,110.5,28l3.26,13A3.39,3.39,0,0,1,112,44.91l-8.29,4.14-2.08-5.2,6.92-2.77a1.7,1.7,0,0,0,1-2L107,28.89A1.81,1.81,0,0,1,108.31,26.7Z"></path><path class="cls-2" d="M71.26,105.63a1.69,1.69,0,0,0,.8-2.19L67.5,92.8l9-6.45L80.38,96a10.15,10.15,0,0,0,9.47,6.4H106.2a8.52,8.52,0,0,0,8.5,8.5,1.7,1.7,0,0,0,1.7-1.7V90.5a1.7,1.7,0,0,0-1.7-1.7h-5.1a1.66,1.66,0,0,0-.94.29l-4.56,3L92.84,90.52a1.7,1.7,0,1,0-.48,3.36h0l11,1.58L105.15,99H89.85a6.76,6.76,0,0,1-6.31-4.28L78.87,83.07a1.7,1.7,0,0,0-2.21-.95,1.75,1.75,0,0,0-.35.2l-11.9,8.5a1.7,1.7,0,0,0-.58,2.05L68.3,103.3l-4,2L57.07,95.06a6.77,6.77,0,0,1,.51-8.45l10.78-12a1.73,1.73,0,0,0,.43-1.33L67.09,58a1.76,1.76,0,0,0-.67-1.17l-6.1-4.57V44L68,47.82a1.67,1.67,0,0,0,.76.18h3.4a6.8,6.8,0,0,0,13.6,0V45.38a10.16,10.16,0,0,0,3.4-7.58V35A9.32,9.32,0,0,0,85,17.4H82.6a28.06,28.06,0,0,1-13-3.2,1.7,1.7,0,0,0-2.3.71v0l-1.9,3.79A11.45,11.45,0,0,0,68.8,33.06V37.8a10.12,10.12,0,0,0,2.62,6.8H69.21l-9.76-4.88a1.7,1.7,0,0,0-2.32.63,1.68,1.68,0,0,0-.21,1.12V50L48.7,44.9a11.94,11.94,0,0,1-3.9-4L38.4,30.26A2.12,2.12,0,0,1,42,28.05l6.66,10.66a1.79,1.79,0,0,0,.81.68l3.06,1.22a1.7,1.7,0,1,0,1.35-3.12l-.09,0-2.54-1L44.9,26.24A5.53,5.53,0,0,0,35.48,32l6.4,10.66a15.36,15.36,0,0,0,5,5.1l10.64,6.65,0,0,6.22,4.66,1.53,13.81L55.05,84.34A10.14,10.14,0,0,0,54.27,97l6.24,8.92a8.52,8.52,0,0,0-7,8.37,1.7,1.7,0,0,0,1.7,1.7H73.9a1.7,1.7,0,0,0,1.7-1.7v-5.1a1.7,1.7,0,1,0-3.4,0v3.4h-15A5.1,5.1,0,0,1,62,109.2h1.7a1.64,1.64,0,0,0,.75-.19ZM82.4,48a3.4,3.4,0,1,1-6.8,0v-.59a10.05,10.05,0,0,0,6.8,0Zm3.4-10.2a6.8,6.8,0,1,1-13.6,0V30.21l3.43-2.29A21.89,21.89,0,0,0,85.8,31ZM67.73,25.46a8.16,8.16,0,0,1,.69-5.21L69.57,18a31.47,31.47,0,0,0,13,2.83H85a6,6,0,0,1,6,5.95,5.86,5.86,0,0,1-1.7,4.13V29.3a1.7,1.7,0,0,0-1.7-1.7h-.68a18.51,18.51,0,0,1-10.28-3.11,1.67,1.67,0,0,0-1.89,0l-5.1,3.4a1.66,1.66,0,0,0-.54.58A7.89,7.89,0,0,1,67.73,25.46Zm39,69,3.42-2.28H113v15a5.1,5.1,0,0,1-3.4-4.81v-1.7a1.53,1.53,0,0,0-.2-.75Z"></path><path class="cls-2" d="M50.1,58.2H36.5a1.7,1.7,0,0,0-1.7,1.7v8.81a5.16,5.16,0,0,0-1.7-.31,5.1,5.1,0,1,0,5.1,5.1V68.4H48.4v5.41a5.16,5.16,0,0,0-1.7-.31,5.1,5.1,0,1,0,5.1,5.1V59.9A1.7,1.7,0,0,0,50.1,58.2Zm-17,17a1.7,1.7,0,1,1,1.7-1.7A1.7,1.7,0,0,1,33.1,75.2Zm5.1-13.6H48.4V65H38.2Zm8.5,18.7a1.7,1.7,0,1,1,1.7-1.7A1.7,1.7,0,0,1,46.7,80.3Z"></path><path class="cls-2" d="M126.54,55.61l-8.84,5.1a5.09,5.09,0,0,0-1.87,7h0l1.7,2.94,2.71,4.68a5.1,5.1,0,1,0,5.34,2.45h0l-4.25-7.36,4.42-2.55a8.51,8.51,0,0,0,3.11-11.61,1.7,1.7,0,0,0-2.32-.63Zm-3.73,25.13a1.7,1.7,0,1,1-.17-1.29h0A1.71,1.71,0,0,1,122.81,80.74Zm1.24-15.85-4.42,2.55L118.78,66a1.7,1.7,0,0,1,.62-2.32h0l7.11-4.1a5.08,5.08,0,0,1-2.46,5.34Z"></path><path class="cls-2" d="M52.61,25.83h1.7v1.7a1.7,1.7,0,0,0,3.4,0v-1.7h1.7a1.7,1.7,0,1,0,0-3.4h-1.7v-1.7a1.7,1.7,0,0,0-3.4,0v1.7h-1.7a1.7,1.7,0,0,0,0,3.4Z"></path><path class="cls-2" d="M38.2,93.9H36.5V92.2a1.7,1.7,0,1,0-3.4,0v1.7H31.4a1.7,1.7,0,0,0,0,3.4h1.7V99a1.7,1.7,0,0,0,3.4,0V97.3h1.7a1.7,1.7,0,1,0,0-3.4Z"></path><path class="cls-2" d="M102.8,82a1.7,1.7,0,0,0,1.7-1.7V78.6h1.7a1.7,1.7,0,1,0,0-3.4h-1.7V73.5a1.7,1.7,0,0,0-3.4,0v1.7H99.4a1.7,1.7,0,0,0,0,3.4h1.7v1.7A1.7,1.7,0,0,0,102.8,82Z"></path><path class="cls-2" d="M124.9,36.1a5.1,5.1,0,1,0-5.1-5.1A5.1,5.1,0,0,0,124.9,36.1Zm0-6.8a1.7,1.7,0,1,1-1.7,1.7A1.7,1.7,0,0,1,124.9,29.3Z"></path><circle class="cls-2" cx="31.4" cy="15.7" r="1.7"></circle><circle class="cls-2" cx="33.91" cy="42.83" r="1.7"></circle><circle class="cls-2" cx="107.9" cy="62.18" r="1.7"></circle><circle class="cls-2" cx="107.9" cy="17.4" r="1.7"></circle></svg> 