<?xml version="1.0" encoding="UTF-8"?> <svg xmlns="http://www.w3.org/2000/svg" id="Capa_1" data-name="Capa 1" viewBox="0 0 150 120"><defs><style>.cls-1{fill:#f6c508;}.cls-2{fill:#001e58;}</style></defs><title>cowork</title><rect class="cls-1" x="58" y="50.69" width="92" height="69.31"></rect><path class="cls-2" d="M123.74,57.18h-10a11.23,11.23,0,0,0-11.23-11.12H87.73A11.23,11.23,0,0,0,76.51,57.18h-3A11.22,11.22,0,0,0,62.27,46.06H47.51A11.23,11.23,0,0,0,36.28,57.18h-10a3.18,3.18,0,0,0-3.18,3.17v3.79a3.19,3.19,0,0,0,3.18,3.18h.6v41.86A2.82,2.82,0,0,0,29.68,112h3.66a2.82,2.82,0,0,0,2.82-2.82V67.32h2.11l1.87,8.27a7.46,7.46,0,0,0,7.33,5.87H49l.31,3.14H45.47a5.88,5.88,0,0,0-5.88,5.88A3.53,3.53,0,0,0,43.11,94H53.33v10.9H50.38a8.15,8.15,0,0,0-7.51,5,1.53,1.53,0,0,0,2.81,1.19,5.08,5.08,0,0,1,4.7-3.12h9a5.09,5.09,0,0,1,4.71,3.12,1.52,1.52,0,1,0,2.8-1.19,8.14,8.14,0,0,0-7.51-5h-3V94h10.1A3.52,3.52,0,0,0,70,90.48a5.88,5.88,0,0,0-5.88-5.88H60.49l.32-3.14H62.3a7.51,7.51,0,0,0,6.92-4.58,1.52,1.52,0,1,0-2.8-1.19,4.47,4.47,0,0,1-4.12,2.72H47.47a4.44,4.44,0,0,1-4.36-3.49L39.53,59.08a8.17,8.17,0,0,1,8-10H62.27a8.17,8.17,0,0,1,8,10L68,69a1.52,1.52,0,1,0,3,.67l.53-2.37h7l1.86,8.27a7.48,7.48,0,0,0,7.34,5.87h1.59l.31,3.14H85.79a5.88,5.88,0,0,0-5.88,5.88A3.53,3.53,0,0,0,83.43,94H93.7v10.9h-3a8.15,8.15,0,0,0-7.51,5A1.53,1.53,0,0,0,86,111.07,5.09,5.09,0,0,1,90.7,108h9a5.09,5.09,0,0,1,4.71,3.12,1.52,1.52,0,1,0,2.8-1.19,8.13,8.13,0,0,0-7.51-5h-3V94h10a3.53,3.53,0,0,0,3.52-3.52,5.88,5.88,0,0,0-5.88-5.88h-3.63l.32-3.14h1.4a7.46,7.46,0,0,0,7.33-5.87l1.87-8.27h2.11v41.86a2.82,2.82,0,0,0,2.82,2.82h3.66a2.82,2.82,0,0,0,2.82-2.82v-6.83a1.52,1.52,0,1,0-3,0V109h-3.21V67.32h3.21V95.25a1.52,1.52,0,1,0,3,0V67.32h.6a3.19,3.19,0,0,0,3.18-3.18V60.35a3.18,3.18,0,0,0-3.18-3.17ZM33.12,109H29.9V67.32h3.22ZM26.26,64.27a.13.13,0,0,1-.13-.13V60.35a.13.13,0,0,1,.13-.13H36.67l.91,4ZM57.74,81.46l-.31,3.14H52.34L52,81.46Zm6.37,6.18A2.84,2.84,0,0,1,67,90.48a.47.47,0,0,1-.47.47H43.11a.47.47,0,0,1-.47-.47,2.84,2.84,0,0,1,2.83-2.84Zm8.08-23.37.91-4h3.8l.91,4Zm32.25,23.37a2.84,2.84,0,0,1,2.83,2.84.47.47,0,0,1-.47.47H83.43a.47.47,0,0,1-.47-.47,2.84,2.84,0,0,1,2.83-2.84ZM92.35,81.46h5.72l-.32,3.14H92.67Zm18.12-22.38-3.58,15.84a4.44,4.44,0,0,1-4.36,3.49H87.7a4.43,4.43,0,0,1-4.36-3.49L79.76,59.08a8.17,8.17,0,0,1,8-10h14.76a8.17,8.17,0,0,1,8,10Zm13.4,5.06a.13.13,0,0,1-.13.13H112.42l.91-4h10.41a.13.13,0,0,1,.13.13Z"></path><path class="cls-2" d="M27.39,16.76h10.2v3.11a5.08,5.08,0,0,0-3.54,4.83v2.07a10.73,10.73,0,0,0-5.57,8.73,2,2,0,0,0,2.05,2.17H47.71a2.06,2.06,0,0,0,2-2.17,10.72,10.72,0,0,0-5.58-8.73V24.7a5.08,5.08,0,0,0-3.54-4.83V16.76H73.48v3.11a5.07,5.07,0,0,0-3.55,4.83v2.07a10.73,10.73,0,0,0-5.57,8.73,2.05,2.05,0,0,0,2,2.17H83.59a2.06,2.06,0,0,0,2-2.17,10.73,10.73,0,0,0-5.57-8.73V24.7a5.07,5.07,0,0,0-3.55-4.83V16.76h32.84v3.11a5.08,5.08,0,0,0-3.54,4.83v2.07a10.72,10.72,0,0,0-5.58,8.73,2.06,2.06,0,0,0,2.05,2.17h17.18a2.05,2.05,0,0,0,2-2.17A10.73,10.73,0,0,0,116,26.77V24.7a5.08,5.08,0,0,0-3.54-4.83V16.76h10.2a4.38,4.38,0,1,0,0-8.76H27.39a4.38,4.38,0,1,0,0,8.76ZM42.07,29.13a7.69,7.69,0,0,1,4.51,5.49H31.66a7.67,7.67,0,0,1,4.5-5.49h0a7.55,7.55,0,0,1,5.9,0Zm-.93-4.43v1a10.56,10.56,0,0,0-4,0v-1a2,2,0,0,1,4,0ZM78,29.13a7.7,7.7,0,0,1,4.5,5.49H67.54A7.7,7.7,0,0,1,72,29.13h0a7.55,7.55,0,0,1,5.9,0ZM77,24.7v1a10.56,10.56,0,0,0-4,0v-1a2,2,0,1,1,4,0Zm36.82,4.43a7.67,7.67,0,0,1,4.5,5.49H103.42a7.69,7.69,0,0,1,4.51-5.49h0a7.53,7.53,0,0,1,5.89,0Zm-.94-4.43v1a10.56,10.56,0,0,0-4,0v-1a2,2,0,0,1,4,0ZM27.39,11.05h95.22a1.34,1.34,0,1,1,0,2.67H27.39a1.34,1.34,0,1,1,0-2.67Z"></path></svg> 