<?xml version="1.0" encoding="UTF-8"?> <svg xmlns="http://www.w3.org/2000/svg" id="Capa_1" data-name="Capa 1" viewBox="0 0 150 120"><defs><style>.cls-1{fill:#f6c508;}.cls-2{fill:#001e58;}</style></defs><title>gaming</title><rect class="cls-1" x="33" y="34" width="92" height="85"></rect><path class="cls-2" d="M99.55,29.19l-22,10L75,33.66a2,2,0,0,0-2.66-1l-3.67,1.67-10-22L55.07,14,65,36l-3.66,1.66a2,2,0,0,0-1,2.66l2.49,5.51-22,10a28.19,28.19,0,1,0,23.26,51.35A27.89,27.89,0,0,0,78.74,91.67l22.8-10.33a27.91,27.91,0,0,0,21.27-.8A28.19,28.19,0,1,0,99.55,29.19ZM64.87,40.48l7.34-3.33,1.66,3.67-7.34,3.32Zm56.28,36.4a24,24,0,0,1-18.92.41,2,2,0,0,0-1.58,0l-24.33,11a2,2,0,0,0-1.07,1.16A24.16,24.16,0,1,1,42.52,59.45l58.69-26.59a24.16,24.16,0,1,1,19.94,44Z"></path><path class="cls-2" d="M62.83,70.14,55.5,73.46l-3.33-7.34a2,2,0,0,0-2.66-1l-7.34,3.32a2,2,0,0,0-1,2.67l3.32,7.34-7.33,3.32a2,2,0,0,0-1,2.66l3.33,7.34a2,2,0,0,0,2.66,1l7.34-3.32,3.32,7.34a2,2,0,0,0,2.67,1l7.33-3.32a2,2,0,0,0,1-2.67l-3.33-7.34,7.34-3.32a2,2,0,0,0,1-2.66L65.5,71.14A2,2,0,0,0,62.83,70.14Zm1.49,8.16L57,81.63a2,2,0,0,0-1,2.66l3.33,7.34-3.67,1.66L52.32,86a2,2,0,0,0-2.67-1l-7.34,3.33-1.66-3.67L48,81.28a2,2,0,0,0,1-2.66l-3.32-7.34,3.67-1.66L52.66,77a2,2,0,0,0,2.67,1l7.33-3.32Z"></path><path class="cls-2" d="M109.6,49a7,7,0,1,0-9.32-3.51A7.05,7.05,0,0,0,109.6,49Zm-4.15-9.17a3,3,0,1,1-1.5,4A3,3,0,0,1,105.45,39.78Z"></path><path class="cls-2" d="M113.76,58.12a7,7,0,1,0,9.33,3.51A7,7,0,0,0,113.76,58.12Zm4.15,9.17a3,3,0,1,1,1.51-4A3,3,0,0,1,117.91,67.29Z"></path><path class="cls-2" d="M97.77,52.1a7,7,0,1,0,9.33,3.51A7,7,0,0,0,97.77,52.1Zm4.15,9.17a3,3,0,1,1,1.51-4,3,3,0,0,1-1.51,4Z"></path><path class="cls-2" d="M116.27,51.46a7,7,0,1,0,3.51-9.33A7.06,7.06,0,0,0,116.27,51.46Zm9.17-4.16a3,3,0,1,1-4-1.5h0A3,3,0,0,1,125.44,47.3Z"></path><rect class="cls-2" x="74.54" y="78.23" width="10.07" height="4.03" transform="translate(-26.02 39.99) rotate(-24.37)"></rect><rect class="cls-2" x="87.37" y="72.41" width="10.07" height="4.03" transform="translate(-22.48 44.77) rotate(-24.37)"></rect><rect class="cls-2" x="59.5" y="55.46" width="4.03" height="4.03" transform="translate(-18.23 30.51) rotate(-24.37)"></rect><rect class="cls-2" x="65.94" y="47.98" width="24.16" height="4.03" transform="translate(-13.68 36.65) rotate(-24.37)"></rect></svg> 