<?xml version="1.0" encoding="UTF-8"?> <svg xmlns="http://www.w3.org/2000/svg" id="Capa_1" data-name="Capa 1" viewBox="0 0 150 120"><defs><style>.cls-1{fill:#f6c508;}.cls-2{fill:#001e58;}</style></defs><title>karaoke</title><rect class="cls-1" x="9" y="3" width="92" height="85"></rect><path class="cls-2" d="M59.92,85.42a6.18,6.18,0,0,0,8.72-.07l5.77-5.87a6.33,6.33,0,0,0-.08-8.72,6.17,6.17,0,0,0-8.72.08L59.85,76.7a6.19,6.19,0,0,0,.07,8.72ZM71.45,73.7a2.05,2.05,0,0,1,0,2.9L70.13,78,67.2,75.08l1.34-1.36A2.06,2.06,0,0,1,71.45,73.7ZM64.32,78l2.93,2.89-1.54,1.57a2.07,2.07,0,0,1-2.91,0,2.13,2.13,0,0,1,0-2.91ZM82.76,54.75a2,2,0,0,1-2.9,0l-2.08-2a2.05,2.05,0,0,1,0-2.9,2.05,2.05,0,0,1,2.9,0l2.08,2A2.06,2.06,0,0,1,82.76,54.75Zm-48.8,60,10.28-10.46a8.24,8.24,0,0,0,10.17-1.22l1.72-1.76a8.21,8.21,0,0,0,8.77-1.92L88.63,75.27l.85.83A6.16,6.16,0,0,0,98.19,76l5.4-5.49a6.36,6.36,0,0,0,.84-7.49,19.52,19.52,0,1,0-22.9-22.52,6.16,6.16,0,0,0-7.48,1L68.66,47a6.18,6.18,0,0,0,.08,8.72l.84.83L45.84,80.68a8.2,8.2,0,0,0-1.76,8.8l-1.72,1.76A8.14,8.14,0,0,0,40,97.07h0a8.11,8.11,0,0,0,1.31,4.35L31,111.89a2,2,0,0,0-.59,1.46A2.05,2.05,0,0,0,34,114.77Zm66.65-86.3a15.42,15.42,0,0,1,.48,30.83l-.11,0L85.3,43.92s0-.08,0-.11A15.49,15.49,0,0,1,100.61,28.47Zm-29,21.41L77,44.39a2.06,2.06,0,0,1,2.91,0l20.74,20.39a2.05,2.05,0,0,1,0,2.9l-1,1a2.2,2.2,0,0,0-.35-.51L89,58a2.05,2.05,0,1,0-2.87,2.93L96.44,71.07a2.11,2.11,0,0,0,.52.34l-1.7,1.73a2.06,2.06,0,0,1-2.91,0L71.62,52.78A2.11,2.11,0,0,1,71.59,49.88Zm.72,9.73,13.2,13L63.7,94.77,50.63,81.92a1.7,1.7,0,0,1-.14-.1ZM47.89,85,60.58,97.46a4.12,4.12,0,0,1-4.42-.87l-7.33-7.21A4.22,4.22,0,0,1,47.89,85ZM44.11,97a4.1,4.1,0,0,1,1.18-2.92l1.23-1.25L52.71,99l-1.23,1.26a4.13,4.13,0,0,1-5.81.05l-.33-.33A4.08,4.08,0,0,1,44.11,97Z"></path><path class="cls-2" d="M65.92,21.56,49.5,16.65a2.14,2.14,0,0,0-2.67,1.44L43.65,28.73a6.25,6.25,0,0,0-1.94-1,6.43,6.43,0,1,0,4.32,8l1.84-6.16,12.32,3.68-2,6.54a6.14,6.14,0,0,0-1.94-1,6.42,6.42,0,1,0,4.32,8l6.75-22.59A2.13,2.13,0,0,0,65.92,21.56ZM39.25,36a2.15,2.15,0,1,1,2.67-1.44A2.15,2.15,0,0,1,39.25,36ZM50.32,21.37l12.32,3.68-1.23,4.1L49.1,25.47ZM53.84,47a2.14,2.14,0,1,1,2.66-1.44A2.14,2.14,0,0,1,53.84,47Z"></path><path class="cls-2" d="M104.54,80.71l-8.84,5.1a5.1,5.1,0,0,0-1.87,7h0l1.7,3,2.71,4.68a5.1,5.1,0,1,0,5.34,2.45h0l-4.25-7.37,4.42-2.55a8.51,8.51,0,0,0,3.11-11.61,1.7,1.7,0,0,0-2.32-.62Zm-3.73,25.14a1.7,1.7,0,1,1-1.2-2.09,1.73,1.73,0,0,1,1,.79h0A1.73,1.73,0,0,1,100.81,105.85ZM102.05,90l-4.42,2.55-.85-1.47a1.7,1.7,0,0,1,.62-2.32h0l7.11-4.11A5.09,5.09,0,0,1,102.05,90Z"></path></svg> 