<?xml version="1.0" encoding="UTF-8"?> <svg xmlns="http://www.w3.org/2000/svg" id="Capa_1" data-name="Capa 1" viewBox="0 0 150 120"><defs><style>.cls-1{fill:#f6c508;}.cls-2{fill:#001e58;}</style></defs><title>pingpong</title><rect class="cls-1" x="-3" y="23" width="112" height="72.69"></rect><path class="cls-2" d="M80.23,11.47a29.82,29.82,0,0,0-25.57,2.69,36,36,0,0,0-12.6,49.52A16.18,16.18,0,0,1,47.14,82.6l-8.22,19.83a2.4,2.4,0,0,0,1.58,3.35l10.3,3.71a2.41,2.41,0,0,0,3.36-1.58l6.29-20.53A16.17,16.17,0,0,1,76.4,76a36,36,0,0,0,21.83-46.2A29.81,29.81,0,0,0,80.23,11.47ZM79,14.91A26,26,0,0,1,94.88,31.05c6,16.48-2.45,34.57-18.64,41.05L44.69,60.75A32.38,32.38,0,0,1,56.46,17.23,26,26,0,0,1,79,14.91ZM49.14,66.23l4.08,1.47L51.43,72A19.73,19.73,0,0,0,49.14,66.23Zm7.52,2.7,5.15,1.85L51,105.67l-8.15-2.93ZM65.24,72l4.08,1.47a19.46,19.46,0,0,0-5.44,3Z"></path><path class="cls-2" d="M94.42,86.93a11.86,11.86,0,1,0,11.86,11.86A11.86,11.86,0,0,0,94.42,86.93Zm0,3.65a8.21,8.21,0,1,1-8.22,8.21A8.22,8.22,0,0,1,94.42,90.58Z"></path><path class="cls-2" d="M118.14,86.93A11.86,11.86,0,1,0,130,98.79,11.86,11.86,0,0,0,118.14,86.93Zm0,3.65a8.21,8.21,0,1,1-8.21,8.21A8.21,8.21,0,0,1,118.14,90.58Z"></path><path class="cls-2" d="M106.28,66.4a11.86,11.86,0,1,0,11.86,11.86A11.86,11.86,0,0,0,106.28,66.4Zm0,3.65a8.21,8.21,0,1,1-8.21,8.21A8.21,8.21,0,0,1,106.28,70.05Z"></path><path class="cls-2" d="M103.71,77.3a2.72,2.72,0,0,1,2.57-1.79,1.83,1.83,0,0,0,0-3.65,6.38,6.38,0,0,0-6,4.19,1.83,1.83,0,1,0,3.43,1.25Z"></path><path class="cls-2" d="M92.57,101.09a3,3,0,0,1,2.79-2,2,2,0,1,0,0-4,6.93,6.93,0,0,0-6.51,4.55,2,2,0,1,0,3.72,1.36Z"></path><path class="cls-2" d="M115.57,97.85a2.73,2.73,0,0,1,2.57-1.8,1.83,1.83,0,0,0,0-3.65,6.39,6.39,0,0,0-6,4.2,1.83,1.83,0,0,0,3.43,1.25Z"></path></svg> 