<svg id="Capa_1" data-name="Capa 1" xmlns="http://www.w3.org/2000/svg" viewBox="0 0 127 107"><defs><style>.cls-1{fill:#f6c508;}.cls-2{fill:#001e58;}</style></defs><title>bono-verde</title><rect class="cls-1" x="5" y="15.88" width="71.47" height="55.33"/><path class="cls-2" d="M116,47.16a6.42,6.42,0,0,0-2.44-4.54l-.49-.33a1.65,1.65,0,0,0-1.19-.51,1.62,1.62,0,0,0-1.62,1.63,1.64,1.64,0,0,0,.45,1.13h0a1.82,1.82,0,0,0,.51.36l.36.24a3.23,3.23,0,0,1,1.22,2.27,3.21,3.21,0,0,1-5.15,2.79l-1.19-.77a1.63,1.63,0,0,0-2.87,1,1.57,1.57,0,0,0,.21.8v4.8H107V53.5a6.39,6.39,0,0,0,9-6.34Z"/><path class="cls-2" d="M109.33,62a26.48,26.48,0,0,0-15.62-7.59,32.53,32.53,0,0,0,21-30.62v-.1a1.93,1.93,0,0,0-1.83-1.88h-.2A32.69,32.69,0,0,0,82.45,42.16,26.47,26.47,0,0,0,75,27.74c-.13-.14-.28-.26-.42-.39l-.19-.16a2,2,0,0,0-2.6,0l-.12.11a26.61,26.61,0,0,0-1,36.49l.07.07L59,75.57l2,2L72.77,65.83l.09.07a26.6,26.6,0,0,0,36.47-1l.09-.09a2,2,0,0,0,0-2.66Zm-25-12.71a28.82,28.82,0,0,1,26.47-23.56,28.69,28.69,0,0,1-26.9,26.88A29.07,29.07,0,0,1,84.36,49.32ZM75.43,63l-.28-.23a1.29,1.29,0,0,1-.17-.15l-.3-.27c-.08-.06-.15-.13-.29-.26s-.35-.39-.53-.59l-.3-.34a22.75,22.75,0,0,1-.39-29.8A22.72,22.72,0,0,1,75,59.43a1.93,1.93,0,0,0,2.69,2.69,22.71,22.71,0,0,1,27.54,1.33A22.73,22.73,0,0,1,75.43,63Z"/><path class="cls-2" d="M105.37,71.13a1.62,1.62,0,0,0-1.63,1.62,1.75,1.75,0,0,0,.05.4V97.07H33.32V51.28L68.56,24.12l1.28,1h0A1.63,1.63,0,0,0,72,22.67h0a2.47,2.47,0,0,0-.27-.21l-3.13-2.38L30.74,49.22h0l-1.26,1a3.2,3.2,0,0,1-5.15-2.79,3.16,3.16,0,0,1,1.22-2.27L66.38,13.19l2.18-2,2.28,2.12,17.25,13.5h0a1.6,1.6,0,0,0,1.17.5,1.63,1.63,0,0,0,.64-3.13h0l-17-13.31-4.36-4-4.26,4L23.57,42.62a6.41,6.41,0,0,0-.74,9.4,6.36,6.36,0,0,0,7.29,1.48l.19,46.77h76.6l0-27.19a1.84,1.84,0,0,0,0-.33A1.61,1.61,0,0,0,105.37,71.13Z"/></svg>