<svg xmlns="http://www.w3.org/2000/svg" viewBox="0 0 132.72 97.38"><defs><style>.cls-1{fill:#f6c508;}.cls-2{fill:#001e58;}</style></defs><title>Recurso 4</title><g id="Capa_2" data-name="Capa 2"><g id="Capa_1-2" data-name="Capa 1"><rect class="cls-1" x="60.72" y="20.96" width="72" height="55.74"/><path class="cls-2" d="M96.46,9.37H90.83a1.24,1.24,0,0,0-1.37,1.13h0V28.71c0,.76.89,1.15,1.82,1.15s1.82-.39,1.82-1.15v-6.5h3.14c3.7,0,6.58-1.77,6.58-6.36v-.17C102.82,11.08,100,9.37,96.46,9.37Zm2.72,6.76c0,2.18-1.12,3.22-2.94,3.22H93.1V12.57h3.14c1.82,0,2.94,1,2.94,3.22v.34Z"/><path class="cls-2" d="M80.9,62c-.71-.39-1.41-.82-2.09-1.27L67.94,53.35a19.81,19.81,0,0,0-11.13-3.41h-20a19.76,19.76,0,0,0-14,5.8,26.83,26.83,0,0,1-6.53,4.78,4.27,4.27,0,0,0,2,8.07h6.8a1.64,1.64,0,1,0,0-3.28h-6.8a1,1,0,0,1-.46-1.87,29.75,29.75,0,0,0,7.34-5.37,16.51,16.51,0,0,1,11.72-4.84h4.47V65.31H35.85a1.64,1.64,0,0,0,0,3.28H80.93a2.45,2.45,0,0,0,2.45-2.45A4.76,4.76,0,0,0,80.9,62ZM44.6,65.31V53.23H56.81a16.49,16.49,0,0,1,9.29,2.85L77,63.42c.76.51,1.55,1,2.34,1.43a1.64,1.64,0,0,1,.52.46Z"/><path class="cls-2" d="M48.68,71.09H43.6a1.65,1.65,0,0,0,0,3.29h5.08a1.65,1.65,0,0,0,0-3.29Z"/><path class="cls-2" d="M114,69.71l-.52-.86a13.5,13.5,0,0,0-8.93-6.27l-4.24-.85V40.22h11a4.11,4.11,0,0,0,4.1-4.1V4.1a4.11,4.11,0,0,0-4.1-4.1h-32a4.11,4.11,0,0,0-4.11,4.1V16.25a1.65,1.65,0,0,0,3.29,0V4.1a.82.82,0,0,1,.82-.81h32a.82.82,0,0,1,.82.81v32a.82.82,0,0,1-.82.81h-32a.82.82,0,0,1-.82-.81V26.93a1.65,1.65,0,0,0-3.29,0v9.19a4.11,4.11,0,0,0,4.1,4.1H91.71V60l-2.18-.44a23,23,0,0,1-7.89-3.73L70.76,48.52a24.8,24.8,0,0,0-14-4.28h-20a24.83,24.83,0,0,0-17.6,7.27A21.51,21.51,0,0,1,8.42,57.36l-2.36.5A7.65,7.65,0,0,0,0,65.31V81.24a4.81,4.81,0,0,0,2.86,4.39l6.55,2.91a10.9,10.9,0,0,0,18.41,5.65,10.75,10.75,0,0,0,2.78-4.75H85.2a10.9,10.9,0,0,0,21,0h3.12a6.1,6.1,0,0,0,6.09-6.1V74.81A9.88,9.88,0,0,0,114,69.71ZM95,40.22h2V61.08l-2-.4ZM25.5,91.86a7.62,7.62,0,0,1-12.32-8.55l0-.06.12-.25.06-.12.12-.21.09-.14.11-.19.11-.16.12-.16.13-.18a1.71,1.71,0,0,1,.11-.14c.05-.07.11-.13.17-.2l.09-.11.26-.28,0,0,.06,0,.22-.22.07,0,.23-.2,0,0a7.64,7.64,0,0,1,9.59,0h0l.25.21,0,0,.28.27.29.31.11.13.15.17.15.2.08.11.18.25,0,0A7.63,7.63,0,0,1,25.5,91.86Zm75.58,0a7.62,7.62,0,0,1-11.76-9.55l0,0,.17-.25a.76.76,0,0,0,.08-.11l.16-.2.14-.16L90,81.4c.09-.11.19-.21.29-.31a7.62,7.62,0,0,1,10.77,0c.1.1.2.2.29.31l.12.13c.05.06.09.12.14.17l.15.2.09.11.17.25,0,0A7.63,7.63,0,0,1,101.08,91.86Zm11-8.52h0a2.81,2.81,0,0,1-2.8,2.81H106.6a10.85,10.85,0,0,0-2.42-6.53l0,0-.29-.34-.08-.09-.32-.34s0,0,0,0a10.89,10.89,0,0,0-7.72-3.2A10.85,10.85,0,0,0,88,78.77s0,0,0,0l-.33.34-.07.09c-.1.11-.2.22-.29.34l0,0a10.78,10.78,0,0,0-2.42,6.53H31a10.82,10.82,0,0,0-2.43-6.54l0,0-.31-.36-.06-.06c-.12-.14-.25-.27-.38-.4a10.27,10.27,0,0,0-1.71-1.4,10.93,10.93,0,0,0-13.71,1.4l-.36.37-.1.11-.23.28-.11.13-.23.3a.36.36,0,0,0-.07.1,10.11,10.11,0,0,0-.58.87v0c-.09.15-.17.3-.25.45h0A10.74,10.74,0,0,0,9.32,84.9L4.19,82.63a1.52,1.52,0,0,1-.9-1.39V65.31a4.34,4.34,0,0,1,3.44-4.23l2.36-.5a24.77,24.77,0,0,0,12.48-6.74,21.52,21.52,0,0,1,15.28-6.31h20a21.53,21.53,0,0,1,12.11,3.71L79.8,58.59a26.3,26.3,0,0,0,9.09,4.23l15,3a10.22,10.22,0,0,1,6.76,4.75l.52.86a6.57,6.57,0,0,1,.94,3.4Z"/><path class="cls-2" d="M23.64,83a5,5,0,1,0,0,7.06A5,5,0,0,0,23.64,83Zm-2.33,4.73a1.68,1.68,0,0,1-1.2.5,1.7,1.7,0,0,1-1.2-.5,1.7,1.7,0,0,1,0-2.41,1.7,1.7,0,0,1,1.2-.5,1.68,1.68,0,0,1,1.2.5A1.7,1.7,0,0,1,21.31,87.68Z"/><path class="cls-2" d="M99.22,83a5,5,0,0,0-7.06,0,5,5,0,0,0,3.53,8.52A5,5,0,0,0,99.22,83ZM96.9,87.68a1.71,1.71,0,1,1,0-2.41,1.72,1.72,0,0,1,.5,1.21A1.7,1.7,0,0,1,96.9,87.68Z"/></g></g></svg>