<svg xmlns="http://www.w3.org/2000/svg" viewBox="0 0 91 82"><defs><style>.cls-1{fill:#f6c508;}.cls-2{fill:#001e58;}</style></defs><title>Recurso 7</title><g id="Capa_2" data-name="Capa 2"><g id="Capa_1-2" data-name="Capa 1"><rect class="cls-1" y="5" width="72" height="55.74"/><path class="cls-2" d="M50,35.53A9.57,9.57,0,1,0,40.43,26,9.57,9.57,0,0,0,50,35.53Zm0-16.4A6.84,6.84,0,1,1,43.17,26,6.84,6.84,0,0,1,50,19.13Z"/><path class="cls-2" d="M49.76,74.83l21-30.28c7.87-10.48,6.73-27.71-2.43-36.87a26.19,26.19,0,0,0-37.06,0c-9.16,9.16-10.3,26.39-2.47,36.83ZM33.16,9.61a23.47,23.47,0,0,1,33.2,0c8.27,8.27,9.28,23.83,2.15,33.34L49.76,70,31,42.91C23.87,33.44,24.89,17.88,33.16,9.61Z"/><path class="cls-2" d="M66.56,58.78A1.36,1.36,0,0,0,65,60a1.38,1.38,0,0,0,1.2,1.52c14.37,1.69,22,6.25,22,8.89,0,3.71-14.56,8.89-38.27,8.89s-38.27-5.18-38.27-8.89c0-2.64,7.66-7.2,22-8.89A1.38,1.38,0,0,0,35,60a1.36,1.36,0,0,0-1.52-1.19C19.05,60.47,9,65.24,9,70.38,9,76.16,23.08,82,50,82s41-5.84,41-11.62C91,65.24,81,60.47,66.56,58.78Z"/></g></g></svg>