<svg xmlns="http://www.w3.org/2000/svg" viewBox="0 0 128.08 88.77"><defs><style>.cls-1{fill:#f6c508;}.cls-2{fill:#001e58;}</style></defs><title>Recurso 10</title><g id="Capa_2" data-name="Capa 2"><g id="Capa_1-2" data-name="Capa 1"><rect class="cls-1" x="56.08" width="72" height="55.74"/><path class="cls-2" d="M111,24.8h-5.65V22a6.58,6.58,0,0,0-6.58-6.58,6.38,6.38,0,0,0-2.82.66V13.51a7.53,7.53,0,0,0-15.06,0V24.8H73.39V22.91A5.62,5.62,0,0,0,64,18.74a5.56,5.56,0,0,0-7.53,0,5.56,5.56,0,0,0-7.53,0,5.61,5.61,0,0,0-9.4,4.17V24.8H32V13.51a7.53,7.53,0,1,0-15,0v2.54a6.46,6.46,0,0,0-2.83-.66A6.59,6.59,0,0,0,7.53,22V24.8H1.88A1.88,1.88,0,0,0,0,26.68V38a1.88,1.88,0,0,0,1.88,1.88H7.53v2.82a6.55,6.55,0,0,0,9.41,5.93v2.54a7.53,7.53,0,1,0,15,0V39.85h3.76v6.29a9.37,9.37,0,0,0,2.76,6.65l4.77,4.77V88.77H47v-32a1.92,1.92,0,0,0-.55-1.33l-5.32-5.32a5.63,5.63,0,0,1-1.65-4V34.2h11a2.26,2.26,0,0,1,1.82.89s0,0,0,.06a1.72,1.72,0,0,1,.19.41,2,2,0,0,1,.07.35,2.16,2.16,0,0,1,0,.36,1.48,1.48,0,0,1,0,.19,1.8,1.8,0,0,1-.21.56,1.87,1.87,0,0,1-1.61.95H45.16a1.88,1.88,0,0,0-1.88,1.88v3.76a1.89,1.89,0,0,0,1.29,1.79l4.14,1.38c3.36,1.12,5.86,6.2,5.86,10h3.76c0-5.17-3.22-11.83-8.43-13.57l-2.86-1v-.53h3.77a5.58,5.58,0,0,0,4.13-1.88H71.5v6.9a5.62,5.62,0,0,1-1.13,3.39l-4.14,5.52a1.88,1.88,0,0,0-.37,1.12v32h3.76V57.41l3.77-5a9.55,9.55,0,0,0,1.88-5.64v-6.9h5.64V51.14a7.53,7.53,0,0,0,15.06,0V48.6a6.54,6.54,0,0,0,9.4-5.93V39.85H111A1.88,1.88,0,0,0,112.9,38V26.68A1.88,1.88,0,0,0,111,24.8ZM7.53,36.09H3.76V28.56H7.53Zm9.41,6.58a2.83,2.83,0,0,1-5.65,0V22a2.83,2.83,0,0,1,5.65,0Zm11.29,8.47a3.77,3.77,0,0,1-7.53,0V13.51a3.77,3.77,0,1,1,7.53,0Zm9.4-20.7a1.88,1.88,0,0,0-1.88,1.88v3.77H32V28.56h7.53a5.36,5.36,0,0,0,.1,1.06c0,.11.06.21.09.32a4.07,4.07,0,0,0,.13.5ZM47,28.56a1.88,1.88,0,0,1-3.76,0V22.91a1.88,1.88,0,0,1,3.76,0Zm7.53,0a1.88,1.88,0,0,1-3.76,0V22.91a1.88,1.88,0,0,1,3.76,0Zm11.29-5.65a1.88,1.88,0,0,1,3.76,0v5.65a1.88,1.88,0,0,1-3.76,0Zm-7.53,0a1.89,1.89,0,0,1,3.77,0v5.65a1.89,1.89,0,0,1-3.77,0ZM80.91,36.09H56.45V36a5.24,5.24,0,0,0-.12-1.11c0-.05,0-.1,0-.15s-.09-.27-.13-.4a5.42,5.42,0,0,0-.29-.7,3.65,3.65,0,0,0-.14-.35l.06,0,.25-.19a4.23,4.23,0,0,0,.42-.32c.11.1.23.17.35.26s.23.19.36.27a4.83,4.83,0,0,0,.55.3l.37.19c.22.08.45.15.68.21l.35.1a5.39,5.39,0,0,0,2.19,0l.35-.1c.23-.06.46-.13.68-.21l.37-.19a6,6,0,0,0,.56-.3c.12-.08.23-.18.35-.27s.24-.16.35-.26c.11.1.24.17.35.26l.36.27a5.86,5.86,0,0,0,.55.3l.38.19c.22.08.44.15.67.21l.35.1a5.63,5.63,0,0,0,6.64-4.4,5.35,5.35,0,0,0,.12-1.13h7.52v7.53Zm11.29,15a3.76,3.76,0,0,1-7.52,0V13.51a3.76,3.76,0,1,1,7.52,0Zm9.41-8.47a2.82,2.82,0,1,1-5.64,0V22a2.82,2.82,0,1,1,5.64,0Zm7.53-6.58h-3.77V28.56h3.77Z"/></g></g></svg>