<svg xmlns="http://www.w3.org/2000/svg" viewBox="0 0 341 341"><defs><style>.cls-1{fill:#d0cbd9;}.cls-2{fill:#fff;}</style></defs><title>Recurso 5</title><g id="Capa_2" data-name="Capa 2"><g id="Capa_1-2" data-name="Capa 1"><circle class="cls-1" cx="170.5" cy="170.5" r="170.5"/><path class="cls-2" d="M236.56,96a18.43,18.43,0,0,0-16.21,27.22l-30.2,30.2a24.42,24.42,0,0,0-30.1,0l-23.56-23.56a12.13,12.13,0,0,0,1.74-6.2,12.29,12.29,0,1,0-12.29,12.29,12.13,12.13,0,0,0,6.2-1.74l23.56,23.56a24.42,24.42,0,0,0,0,30.1L116.8,226.78a18.25,18.25,0,1,0,3.84,4.85l39.42-39.42a24.44,24.44,0,0,0,12,5V228.4a18.44,18.44,0,1,0,6.15,0V197.18a24.44,24.44,0,0,0,12-5l23.56,23.56A12.12,12.12,0,0,0,212,222a12.29,12.29,0,1,0,12.29-12.29,12.13,12.13,0,0,0-6.2,1.74L194.5,187.87a24.42,24.42,0,0,0,0-30.1l29.7-29.7A18.42,18.42,0,1,0,236.56,96ZM119.8,123.65a6.15,6.15,0,1,1,6.15,6.15A6.15,6.15,0,0,1,119.8,123.65ZM104.44,252.71a12.29,12.29,0,1,1,12.29-12.29A12.3,12.3,0,0,1,104.44,252.71Zm83-6.15a12.29,12.29,0,1,1-12.29-12.29A12.3,12.3,0,0,1,187.4,246.56Zm-12.29-55.31a18.44,18.44,0,1,1,18.44-18.44A18.45,18.45,0,0,1,175.11,191.25ZM230.42,222a6.15,6.15,0,1,1-6.15-6.15A6.15,6.15,0,0,1,230.42,222Zm6.15-95.25a12.29,12.29,0,1,1,12.29-12.29A12.3,12.3,0,0,1,236.56,126.73Z"/></g></g></svg>