<svg id="Capa_1" data-name="Capa 1" xmlns="http://www.w3.org/2000/svg" viewBox="0 0 106 100"><defs><style>.cls-1{fill:#f6c508;}.cls-2{fill:#001e58;}</style></defs><title>Jardines verticales</title><rect class="cls-1" x="30" y="22.94" width="72" height="55.74"/><g id="_Grupo_" data-name="&lt;Grupo&gt;"><path id="_Trazado_" data-name="&lt;Trazado&gt;" class="cls-2" d="M43.82,21.49l0-8.36c0-1.38-.58-2.5-1.3-2.5s-1.33,1.11-1.34,2.49v1.59c2.09,3.82,2.38,7.79.4,10.79-.14.21-.3.4-.46.6l-.07,15.06h2.63l.06-11.87,0-.06A11,11,0,0,1,43.82,21.49Z"/><path id="_Trazado_compuesto_" data-name="&lt;Trazado compuesto&gt;" class="cls-2" d="M85.44,13.14c-2.91-7.52-14.62-10-26.11-5.59a29.47,29.47,0,0,0-13,9.42,17.42,17.42,0,0,0-2.47,4.52,11,11,0,0,0-.07,7.75l0,.06C45.73,34.23,51.47,37,58.45,37a31.67,31.67,0,0,0,11.42-2.2C81.36,30.39,88.34,20.66,85.44,13.14ZM48.56,18.66a26.64,26.64,0,0,1,11.79-8.47h0a29.09,29.09,0,0,1,10.56-2c5.42,0,9.84,1.91,11.59,5.35L61.27,22,63,15.28a1.41,1.41,0,0,0-2.74-.7L58,23.31,46.32,28C45.35,25.22,46.14,21.92,48.56,18.66ZM68.85,32.19c-8.67,3.35-17.35,2.47-21.07-1.73l21.38-8.57,10.6,1.55H80a1.41,1.41,0,0,0,.21-2.81l-5.78-.84,8.87-3.56C83.7,22,77.77,28.74,68.85,32.19Z"/><path id="_Trazado_compuesto_2" data-name="&lt;Trazado compuesto&gt;" class="cls-2" d="M30.19,41.1c-7.17,0-13,5.49-13.06,12.32l-.05,9.79,0,11.16L17,83.57C17,90.4,22.75,96,29.92,96l28.47.14c7.16,0,13-5.49,13-12.32l0-9.2h0l.05-11.15h0l0-9.79c0-6.82-5.77-12.4-12.94-12.44l-14.93-.07H41.09ZM68.61,83.83c0,5.26-4.6,9.53-10.21,9.5l-28.47-.14c-5.6,0-10.14-4.33-10.12-9.6l0-7.8,48.8.24Zm.06-10.63L19.87,73l0-8.33,48.8.24Zm-10-29.13c5.61,0,10.15,4.33,10.12,9.6l0,8.38-48.8-.24,0-8.38c0-5.26,4.61-9.53,10.21-9.5Z"/><path id="_Trazado_compuesto_3" data-name="&lt;Trazado compuesto&gt;" class="cls-2" d="M41.22,14.71a23,23,0,0,0-7.58-7.94h0a22.31,22.31,0,0,0-11.53-3.9,10.83,10.83,0,0,0-7.42,2.32l-.15.15a8,8,0,0,0-1.27,1.45c-3.47,5.26,0,13.49,8,18.74a22.27,22.27,0,0,0,11.52,3.89H33c3.54,0,6.38-1.16,8.13-3.32.16-.2.32-.39.46-.6C43.6,22.5,43.31,18.53,41.22,14.71ZM32.84,26.59a19.39,19.39,0,0,1-10-3.43c-6.4-4.22-9.69-11-7.17-14.81a2.35,2.35,0,0,1,.16-.21L39,24.23C37.81,25.81,35.64,26.65,32.84,26.59Zm7.24-5.08-3.84-2.65a1.27,1.27,0,0,0-.09-.43l-2.39-6.12a1.42,1.42,0,0,0-2.64,1L32.18,16l-14-9.7a9.42,9.42,0,0,1,3.68-.64h.21a19.35,19.35,0,0,1,10,3.43h0C37.27,12.56,40.42,17.67,40.08,21.51Z"/></g></svg>