<svg xmlns="http://www.w3.org/2000/svg" viewBox="0 0 98 84.14"><defs><style>.cls-1{fill:#f6c508;}.cls-2{fill:#001e58;}</style></defs><title>Recurso 9</title><g id="Capa_2" data-name="Capa 2"><g id="Capa_1-2" data-name="Capa 1"><rect class="cls-1" x="26" y="28.4" width="72" height="55.74"/><path class="cls-2" d="M33.5,69.68a24.12,24.12,0,1,0-22-14.23A24.13,24.13,0,0,0,33.5,69.68ZM13.94,36.77A21.44,21.44,0,1,1,24.71,65.11,21.44,21.44,0,0,1,13.94,36.77Z"/><path class="cls-2" d="M63,0H4A4,4,0,0,0,0,4V76.38a4,4,0,0,0,4,4H63a4,4,0,0,0,4-4V4A4,4,0,0,0,63,0Zm1.34,76.38A1.34,1.34,0,0,1,63,77.72H4a1.34,1.34,0,0,1-1.34-1.34V75H64.32Zm0-4H2.68V18.76H64.32Zm0-56.28H2.68V4A1.34,1.34,0,0,1,4,2.68H63A1.34,1.34,0,0,1,64.32,4Z"/><path class="cls-2" d="M33.5,64.32a17.77,17.77,0,0,0,1.8-.1,18.33,18.33,0,0,0,5.26-1.28l.4-.16a4.39,4.39,0,0,0,.44-.21c.24-.11.47-.21.7-.33A18.77,18.77,0,0,0,50.18,37l-.08-.15A18.71,18.71,0,0,0,40,28l-.24-.09a18.59,18.59,0,0,0-4.48-1c-.6-.06-1.2-.1-1.81-.1a18.76,18.76,0,0,0,0,37.52ZM48.36,39.45h0c0,.08.07.15.1.22s.13.36.19.53c.14.39.26.78.37,1.17l.15.61c.09.4.16.8.22,1.21,0,.18.06.37.08.56a14.38,14.38,0,0,1,0,3.59c0,.19,0,.37-.08.56-.06.4-.13.81-.22,1.21l-.15.61c-.11.4-.23.78-.37,1.17-.06.18-.12.36-.19.53s-.07.15-.1.22a8,8,0,0,1-.87-11.33A8.93,8.93,0,0,1,48.36,39.45ZM19.87,37a16.07,16.07,0,0,1,27.25,0,10.7,10.7,0,0,0,0,17.06A16.07,16.07,0,1,1,19.87,37Z"/><path class="cls-2" d="M22.78,45.56A10.73,10.73,0,0,1,33.5,34.84a1.34,1.34,0,0,0,0-2.68,13.41,13.41,0,0,0-13.4,13.4,1.34,1.34,0,1,0,2.68,0Z"/><path class="cls-2" d="M49.58,6.7H44.22a1.34,1.34,0,0,0,0,2.68h5.36a1.34,1.34,0,1,0,0-2.68Z"/><path class="cls-2" d="M49.58,10.72H44.22a1.34,1.34,0,1,0,0,2.68h5.36a1.34,1.34,0,1,0,0-2.68Z"/><path class="cls-2" d="M24.12,6.7H18.76a1.34,1.34,0,1,0,0,2.68h5.36a1.34,1.34,0,1,0,0-2.68Z"/><path class="cls-2" d="M24.12,10.72H18.76a1.34,1.34,0,0,0,0,2.68h5.36a1.34,1.34,0,0,0,0-2.68Z"/><path class="cls-2" d="M60.3,6.7H54.94a1.34,1.34,0,0,0,0,2.68H60.3a1.34,1.34,0,1,0,0-2.68Z"/><path class="cls-2" d="M60.3,10.72H54.94a1.34,1.34,0,1,0,0,2.68H60.3a1.34,1.34,0,1,0,0-2.68Z"/><path class="cls-2" d="M36.18,4a5.36,5.36,0,1,0,5.36,5.36A5.36,5.36,0,0,0,36.18,4Zm0,8a2.68,2.68,0,1,1,2.68-2.68A2.68,2.68,0,0,1,36.18,12.06Z"/><path class="cls-2" d="M10.72,4a5.36,5.36,0,1,0,5.36,5.36A5.36,5.36,0,0,0,10.72,4Zm0,8A2.68,2.68,0,1,1,13.4,9.38,2.68,2.68,0,0,1,10.72,12.06Z"/></g></g></svg>