<svg xmlns="http://www.w3.org/2000/svg" viewBox="0 0 129.81 95.18"><defs><style>.cls-1{fill:#f6c508;}.cls-2{fill:#001e58;}</style></defs><title>Recurso 6</title><g id="Capa_2" data-name="Capa 2"><g id="Capa_1-2" data-name="Capa 1"><rect class="cls-1" x="57.81" y="39.44" width="72" height="55.74"/><path class="cls-2" d="M91,85.57a5.13,5.13,0,0,0-6.42,0l-2.79,2.23a1.58,1.58,0,0,1-2,0l-2.82-2.24a5.11,5.11,0,0,0-6.41,0l-2.8,2.22a1.56,1.56,0,0,1-2,0l-2.79-2.22a5.13,5.13,0,0,0-6.42,0l-2.82,2.24a1.55,1.55,0,0,1-2,0l-2.82-2.24a5.13,5.13,0,0,0-6.42,0l-2.8,2.23a1.58,1.58,0,0,1-2,0l-2.82-2.24a5.13,5.13,0,0,0-6.41,0l-2.82,2.24a1.56,1.56,0,0,1-2,0l-2.8-2.23a5.11,5.11,0,0,0-6.41,0l-2.82,2.24a1.56,1.56,0,0,1-2,0L7.09,85.57a5.13,5.13,0,0,0-6.41,0,1.77,1.77,0,0,0-.29,2.51,1.79,1.79,0,0,0,2.52.29,1.58,1.58,0,0,1,2,0l2.82,2.25a5.15,5.15,0,0,0,6.41,0l2.82-2.24a1.56,1.56,0,0,1,2,0l2.8,2.23a5.13,5.13,0,0,0,6.41,0l2.82-2.24a1.59,1.59,0,0,1,2,0l2.82,2.24a5.14,5.14,0,0,0,6.42,0l2.79-2.23a1.56,1.56,0,0,1,2,0l2.82,2.24a5.15,5.15,0,0,0,6.41,0l2.82-2.24a1.56,1.56,0,0,1,2,0l2.79,2.23a5.14,5.14,0,0,0,6.42,0l2.8-2.23a1.55,1.55,0,0,1,1.95,0l2.82,2.23a5.14,5.14,0,0,0,6.42,0l2.8-2.23a1.55,1.55,0,0,1,2,0A1.79,1.79,0,0,0,91,85.57Z"/><path class="cls-2" d="M91,74a5.14,5.14,0,0,0-6.42,0L81.83,76.2a1.56,1.56,0,0,1-2,0L77.05,74a5.13,5.13,0,0,0-6.41,0l-2.8,2.23a1.56,1.56,0,0,1-2,0L63.09,74a5.14,5.14,0,0,0-6.42,0L53.85,76.2a1.55,1.55,0,0,1-2,0L49.08,74a5.14,5.14,0,0,0-6.42,0l-2.8,2.23a1.55,1.55,0,0,1-2,0L35.09,74a5.13,5.13,0,0,0-6.41,0L25.86,76.2a1.56,1.56,0,0,1-2,0L21.1,74a5.13,5.13,0,0,0-6.41,0L11.87,76.2a1.56,1.56,0,0,1-2,0L7.09,74A5.13,5.13,0,0,0,.68,74,1.79,1.79,0,0,0,2.9,76.77a1.56,1.56,0,0,1,2,0L7.68,79a5.13,5.13,0,0,0,6.41,0l2.82-2.24a1.59,1.59,0,0,1,2,0L21.67,79a5.11,5.11,0,0,0,6.41,0l2.82-2.24a1.56,1.56,0,0,1,2,0L35.68,79a5.13,5.13,0,0,0,6.42,0l2.79-2.23a1.59,1.59,0,0,1,2,0L49.67,79a5.15,5.15,0,0,0,6.41,0l2.82-2.24a1.58,1.58,0,0,1,2,0L63.65,79a5.12,5.12,0,0,0,6.42,0l2.8-2.23a1.58,1.58,0,0,1,1.95,0L77.64,79a5.13,5.13,0,0,0,6.42,0l2.8-2.23a1.58,1.58,0,0,1,2,0A1.79,1.79,0,1,0,91,74Z"/><path class="cls-2" d="M91,62.36a5.13,5.13,0,0,0-6.42,0l-2.79,2.22a1.58,1.58,0,0,1-2,0l-2.82-2.24a5.11,5.11,0,0,0-6.41,0l-2.8,2.22a1.56,1.56,0,0,1-2,0l-2.79-2.22a5.13,5.13,0,0,0-6.42,0L53.85,64.6a1.55,1.55,0,0,1-2,0l-2.82-2.24a5.13,5.13,0,0,0-6.42,0l-2.8,2.22a1.56,1.56,0,0,1-2,0l-2.82-2.24a5.13,5.13,0,0,0-6.41,0L25.86,64.6a1.59,1.59,0,0,1-2,0l-2.8-2.23a5.11,5.11,0,0,0-6.41,0L11.87,64.6a1.56,1.56,0,0,1-2,0L7.09,62.36a5.13,5.13,0,0,0-6.41,0,1.77,1.77,0,0,0-.29,2.51,1.79,1.79,0,0,0,2.52.29,1.58,1.58,0,0,1,2,0l2.82,2.25a5.15,5.15,0,0,0,6.41,0l2.82-2.24a1.56,1.56,0,0,1,2,0l2.8,2.23a5.13,5.13,0,0,0,6.41,0l2.83-2.24a1.58,1.58,0,0,1,1.95,0l2.82,2.24a5.14,5.14,0,0,0,6.42,0l2.79-2.23a1.56,1.56,0,0,1,2,0l2.82,2.24a5.15,5.15,0,0,0,6.41,0l2.82-2.24a1.56,1.56,0,0,1,2,0l2.79,2.22a5.12,5.12,0,0,0,6.42,0l2.8-2.22a1.55,1.55,0,0,1,1.95,0l2.82,2.23a5.14,5.14,0,0,0,6.42,0l2.8-2.23a1.55,1.55,0,0,1,2,0A1.79,1.79,0,0,0,91,62.36Z"/><path class="cls-2" d="M77,0A14.71,14.71,0,0,0,62.34,14.69V34H30.1V27.55H49.34a1.79,1.79,0,0,0,0-3.58H30.1V14.69a11.11,11.11,0,1,1,22.21,0v3.8a1.79,1.79,0,0,0,3.58,0v-3.8a14.69,14.69,0,1,0-29.38,0V29.2H8.3a1.79,1.79,0,0,0,0,3.58H26.51V58.93a1.8,1.8,0,1,0,3.59,0V57.65H62.34v1.28a1.79,1.79,0,1,0,3.58,0V14.69a11.11,11.11,0,1,1,22.21,0v3.8a1.8,1.8,0,0,0,3.59,0v-3.8A14.71,14.71,0,0,0,77,0ZM62.34,54.06H30.1V47.65H62.34Zm0-10H30.1V37.6H62.34Z"/><path class="cls-2" d="M57.69,24.49A1.8,1.8,0,0,0,56.43,24a1.79,1.79,0,1,0,0,3.58,1.79,1.79,0,0,0,1.26-3.06Z"/><path class="cls-2" d="M89.93,29.2H71.74a1.79,1.79,0,1,0,0,3.58H89.93a1.79,1.79,0,0,0,0-3.58Z"/></g></g></svg>