<svg xmlns="http://www.w3.org/2000/svg" viewBox="0 0 113.24 101.17"><defs><style>.cls-1{fill:#f6c508;}.cls-2{fill:#001e58;}</style></defs><title>Recurso 5</title><g id="Capa_2" data-name="Capa 2"><g id="Capa_1-2" data-name="Capa 1"><rect class="cls-1" y="44.17" width="72" height="55.74"/><path class="cls-2" d="M108.94,38.14h-7.26a1.61,1.61,0,0,0-1.61,1.6v1H98.38l0-.94v-.15c0-7.22-18-11-35.85-11s-35.85,3.79-35.85,11c0,0,0,.09,0,.13v0c0,.31,0,.63,0,.94H25v-1a1.61,1.61,0,0,0-1.61-1.6H16.17c-3.17,0-4.3,2-4.3,3.89v.66c0,1.88,1.13,3.89,4.3,3.89h7.26A1.61,1.61,0,0,0,25,45V44H27A35.93,35.93,0,0,0,48.3,72.4l-9,19.16a1.61,1.61,0,0,0,.77,2.13,1.51,1.51,0,0,0,.68.16,1.6,1.6,0,0,0,1.45-.92l9.13-19.38a36,36,0,0,0,10,1.77V99.56a1.6,1.6,0,1,0,3.2,0V75.29a35.44,35.44,0,0,0,9.89-2l9.23,19.6a1.61,1.61,0,0,0,1.45.92,1.61,1.61,0,0,0,1.45-2.29L77.39,72.14a35.94,35.94,0,0,0,12.39-9.31,1.61,1.61,0,0,0-2.44-2.09A32.62,32.62,0,0,1,64.51,72.08V64.92a1.6,1.6,0,1,0-3.2,0v7.19A32.78,32.78,0,0,1,30.36,44.8a18.13,18.13,0,0,0,1.82,1l.21.1c6.73,3.16,18.5,4.78,30.17,4.78,13,0,26-2,32.21-5.88a32.64,32.64,0,0,1-4.41,11.81,1.6,1.6,0,0,0,2.73,1.68,35.86,35.86,0,0,0,5-14.33h2v1a1.6,1.6,0,0,0,1.6,1.6h7.26c3.17,0,4.3-2,4.3-3.89V42C113.24,40.15,112.11,38.14,108.94,38.14ZM21.83,43.37H16.17c-1.1,0-1.1-.28-1.1-.68V42c0-.4,0-.68,1.1-.68h5.66Zm65.4-8.55a30.3,30.3,0,0,1,4.27,1.59L89.65,38.2H83.74Zm-3.65-.93L79.13,38.2H73.22L78.61,33C80.35,33.24,82,33.54,83.58,33.89Zm-9-1.42L68.62,38.2H62.71L69.06,32C70.93,32.14,72.76,32.28,74.53,32.47Zm-12-.6,2,0L58.1,38.2H52.19l6.47-6.27C59.94,31.89,61.25,31.87,62.56,31.87Zm-15.4,1c2.11-.3,4.33-.54,6.63-.7l-6.2,6H41.68Zm-8.39,1.68c.88-.24,1.8-.47,2.75-.68L37.07,38.2H30.78C32,37.05,34.61,35.71,38.77,34.57Zm-6.09,7.89a11.1,11.1,0,0,1-1.6-1.05h2.69Zm6.09,2.32c-1.08-.3-2.05-.61-2.92-.92l2.52-2.45h5.91l-3.9,3.78C39.83,45.06,39.29,44.92,38.77,44.78Zm10.62,2c-1.82-.22-3.56-.47-5.22-.77l4.72-4.57H54.8l-5.14,5A1.31,1.31,0,0,0,49.39,46.75Zm9.72.68c-1.91-.06-3.79-.15-5.61-.29l5.9-5.73h5.91Zm4.56,0,6.25-6.06h5.91l-6,5.85C67.8,47.38,65.75,47.45,63.67,47.47Zm18.7-2.21a1.62,1.62,0,0,0-.36.52c-2.24.44-4.65.8-7.18,1.07l5.6-5.44h5.91Zm5.6-1,3-2.89H94A19.2,19.2,0,0,1,88,44.3Zm6.28-6.1,0,0,0,0ZM110,42.69c0,.4,0,.68-1.1.68h-5.66v-2h5.66c1.1,0,1.1.28,1.1.68Z"/><path class="cls-2" d="M43.48,23.87a1.6,1.6,0,0,0,0,2.26,1.62,1.62,0,0,0,1.16.5,1.59,1.59,0,0,0,1.11-.45c1.93-1.85,4.45-6.69.11-11.77-1.44-1.68-1.92-3.31-1.43-4.84a4.79,4.79,0,0,1,1.26-2,1.61,1.61,0,0,0-2.09-2.44A7.85,7.85,0,0,0,41,10.2a8.58,8.58,0,0,0,2.36,6.3C46.75,20.45,43.82,23.53,43.48,23.87Z"/><path class="cls-2" d="M55.69,19.1a1.6,1.6,0,0,0,1.11,2.76,1.58,1.58,0,0,0,1.11-.44c1.94-1.85,4.45-6.69.11-11.77C56.58,8,56.1,6.33,56.59,4.8a4.8,4.8,0,0,1,1.26-2A1.61,1.61,0,0,0,58,.57,1.59,1.59,0,0,0,55.77.38a7.75,7.75,0,0,0-2.55,5.05,8.55,8.55,0,0,0,2.36,6.3C59,15.68,56,18.77,55.69,19.1Z"/><path class="cls-2" d="M67.91,19.1A1.6,1.6,0,0,0,69,21.86a1.58,1.58,0,0,0,1.11-.44c1.94-1.85,4.45-6.69.11-11.77C68.79,8,68.31,6.33,68.8,4.8a5,5,0,0,1,1.26-2A1.6,1.6,0,0,0,68,.38a7.75,7.75,0,0,0-2.55,5.05,8.57,8.57,0,0,0,2.37,6.3C71.17,15.68,68.24,18.77,67.91,19.1Z"/><path class="cls-2" d="M80.12,23.87a1.6,1.6,0,1,0,2.21,2.31c1.94-1.85,4.46-6.69.11-11.77C81,12.73,80.52,11.1,81,9.57a4.93,4.93,0,0,1,1.25-2,1.6,1.6,0,0,0-2.08-2.44,7.84,7.84,0,0,0-2.55,5.06A8.59,8.59,0,0,0,80,16.5C83.38,20.45,80.45,23.53,80.12,23.87Z"/></g></g></svg>