<svg id="Capa_1" data-name="Capa 1" xmlns="http://www.w3.org/2000/svg" viewBox="0 0 114 95"><defs><style>.cls-1{fill:#f6c508;}.cls-2{fill:#001e58;}</style></defs><title>sala-de-niNos </title><rect class="cls-1" x="8" y="34.94" width="72" height="55.74"/><g id="_Grupo_" data-name="&lt;Grupo&gt;"><path id="_Trazado_compuesto_" data-name="&lt;Trazado compuesto&gt;" class="cls-2" d="M39.15,39A14.62,14.62,0,0,0,49.49,64h0A14.48,14.48,0,0,0,59.83,59.7a14.65,14.65,0,0,0,3.31-5.11H76.79A14.63,14.63,0,0,0,90.43,64h0a14.62,14.62,0,1,0-6.67-27.63,19.19,19.19,0,0,0-3.08-3.66,2,2,0,0,0-2.54-.11c-.08.07-8.14,6.06-15.82.58l-4-6.27a14.63,14.63,0,0,0,11.32,5.37h0A14.66,14.66,0,0,0,84.22,17.63a14.64,14.64,0,1,0-27.69,6.58l-4.88-7.55a5,5,0,0,0-8.36,5.41l8.3,12.84A14.49,14.49,0,0,0,39.15,39ZM62,10.09a10.68,10.68,0,1,1-3.12,7.55A10.61,10.61,0,0,1,62,10.09ZM82.87,41.82a10.68,10.68,0,1,1,7.56,18.23h0a10.68,10.68,0,0,1-7.56-18.23ZM46,20.33a1.78,1.78,0,0,1,.52-2.44,1.81,1.81,0,0,1,2.44.52l9.54,14.75h0L61,37l.15.15a16.39,16.39,0,0,0,2.07,1.08,14.57,14.57,0,0,0,1.79.64c6.09,1.79,11.67-.74,14.1-2.13a15.16,15.16,0,0,1,1.45,1.95l-.42.39a14.52,14.52,0,0,0-4.28,10.33c0,.43,0,.84.06,1.26H64.05c0-.42.07-.84.07-1.27a14.69,14.69,0,0,0-7.66-12.85l-.21-.32Zm14.19,29A10.69,10.69,0,0,1,49.5,60.05h0A10.69,10.69,0,1,1,60.18,49.37Z"/><path id="_Trazado_compuesto_2" data-name="&lt;Trazado compuesto&gt;" class="cls-2" d="M31.55,85.73a2,2,0,0,0,1.4.59H66a2,2,0,0,0,2-1.9c0-.53.33-12.86-7.42-20a2,2,0,0,0-2.53-.11c-.35.26-8.68,6.44-16.57,0a2,2,0,0,0-2.53,0c-.32.28-7.78,6.92-8,19.93A2,2,0,0,0,31.55,85.73Zm8.92-17.24c7,4.6,14.4,2.42,18.52,0,3.88,4.41,4.8,10.78,5,13.92H35A24.34,24.34,0,0,1,40.47,68.49Z"/><path id="_Trazado_compuesto_3" data-name="&lt;Trazado compuesto&gt;" class="cls-2" d="M99,64.34c-.35.26-8.68,6.44-16.57,0a2,2,0,0,0-2.54,0c-.31.28-7.78,6.92-8,19.93a2,2,0,0,0,2,2H107a2,2,0,0,0,2-1.9c0-.53.33-12.86-7.43-20A2,2,0,0,0,99,64.34Zm6,18h-29A24.34,24.34,0,0,1,81.4,68.49c6.95,4.6,14.41,2.42,18.53,0C103.81,72.86,104.73,79.23,104.94,82.37Z"/></g></svg>