<svg id="Capa_1" data-name="Capa 1" xmlns="http://www.w3.org/2000/svg" viewBox="0 0 159 99"><defs><style>.cls-1{fill:#f6c508;}.cls-2{fill:#001e58;}</style></defs><title>sala-de-estudios</title><rect class="cls-1" x="65" y="4.94" width="72" height="55.74"/><g id="_Grupo_" data-name="&lt;Grupo&gt;"><path id="_Trazado_compuesto_" data-name="&lt;Trazado compuesto&gt;" class="cls-2" d="M22.57,55.69A6.06,6.06,0,0,0,19,65.28l-2.53,15A2.19,2.19,0,0,0,17,82.07a2.21,2.21,0,0,0,1.69.79H29a2.2,2.2,0,0,0,1.66-.76,2.23,2.23,0,0,0,.53-1.75L29.05,64.71A6,6,0,0,0,27,56.45V48.33l13.65,5.93V88.17a7.59,7.59,0,0,0,7.58,7.58h62.33a7.59,7.59,0,0,0,7.58-7.58v-36l32.54-14.12A2.21,2.21,0,0,0,150.5,34L76.5,8.69a2.18,2.18,0,0,0-1.49,0C49.67,18.3,8.06,33.6,4.19,33.83a2.21,2.21,0,0,0-.86,4.24l19.24,8.34ZM21.26,78.44l2.28-13.5a2.21,2.21,0,0,0-.76-2.06,1.61,1.61,0,0,1-.59-1.26,1.65,1.65,0,1,1,2.88,1.08,2.19,2.19,0,0,0-.52,1.75l1.93,14Zm92.45,9.73a3.16,3.16,0,0,1-3.16,3.16H48.22a3.17,3.17,0,0,1-3.16-3.16v-32L76.12,69.65a2.24,2.24,0,0,0,1.76,0L113.71,54.1ZM10.92,36.54c16-5,54.42-19.44,64.91-23.41l67.84,23.16L77,65.21,33,46.11l37.17-4.9A13.36,13.36,0,0,0,77,42.82c5.13,0,9-2,9-4.75s-3.86-4.74-9-4.74c-4.42,0-7.9,1.52-8.77,3.67L25.09,42.69Zm59.3,1.53c0-1,2.64-2.53,6.78-2.53s6.78,1.5,6.78,2.53S81.14,40.61,77,40.61,70.22,39.11,70.22,38.07Z"/></g></svg>