<svg id="Capa_1" data-name="Capa 1" xmlns="http://www.w3.org/2000/svg" viewBox="0 0 112 100"><defs><style>.cls-1{fill:#f6c508;}.cls-2{fill:#001e58;}</style></defs><title>terraza</title><rect class="cls-1" x="28.87" y="43.78" width="66.13" height="51.2"/><path class="cls-2" d="M17,44.44V87.93h2.87V42.45L51.47,18.07,83.09,42.45V87.93H86V44.44a5.65,5.65,0,0,0,6.54-1.32,5.75,5.75,0,0,0-.67-8.44L55.39,6.16,51.47,2.53,47.65,6.08,11.11,34.68A5.74,5.74,0,0,0,17,44.44Zm-4.1-7.5L49.52,8.27l1.95-1.82,2.05,1.9L90.07,36.94a2.87,2.87,0,0,1-3.52,4.54L86,41,51.47,14.45,17.54,40.6h0l-1.14.87a2.87,2.87,0,0,1-3.52-4.54Z"/><rect class="cls-2" x="85" y="69" width="24" height="16"/></svg>