<svg xmlns="http://www.w3.org/2000/svg" viewBox="0 0 105 80.26"><defs><style>.cls-1{fill:#f6c508;}.cls-2{fill:#001e58;}</style></defs><title>Recurso 8</title><g id="Capa_2" data-name="Capa 2"><g id="Capa_1-2" data-name="Capa 1"><rect class="cls-1" y="24.52" width="72" height="55.74"/><path class="cls-2" d="M105,30.57c0-.85-.51-2.43-3.27-3.43L28.29.44A7.28,7.28,0,0,0,19,4.78l-2,5.46h0L12.52,22.53a7.27,7.27,0,0,0,4.34,9.31l21.41,7.79A8.66,8.66,0,0,0,40,46.41L35.45,58.94a1.46,1.46,0,0,1-1.37,1H20.72V55.55a4.36,4.36,0,0,0-4.36-4.36H13.45A1.45,1.45,0,0,0,12,52.64V75.89a1.45,1.45,0,0,0,1.45,1.45h2.91A4.36,4.36,0,0,0,20.72,73V68.62H34.08a10.22,10.22,0,0,0,9.57-6.7l4.46-12.26a8.66,8.66,0,0,0,6.26-4.18l25,9.09a7.17,7.17,0,0,0,2.48.44,7.31,7.31,0,0,0,6.2-3.46l2.87,1a2.84,2.84,0,0,0,1,.18,2.8,2.8,0,0,0,1.23-.28,2.88,2.88,0,0,0,1.5-1.64l4-10.92a2.92,2.92,0,0,0-1.24-3.49L102,34.27C104.7,33,105,31.42,105,30.57ZM17.81,73a1.46,1.46,0,0,1-1.45,1.46H14.91V54.09h1.45a1.45,1.45,0,0,1,1.45,1.46ZM40.92,60.93a7.31,7.31,0,0,1-6.84,4.79H20.72V62.81H34.08a4.39,4.39,0,0,0,4.11-2.87l4.17-11.47a9,9,0,0,0,1.53.74,8.54,8.54,0,0,0,1.17.33Zm6.16-14.1H47a5.86,5.86,0,0,1-4.18-1.66,1,1,0,0,0-.18-.18,5.79,5.79,0,0,1-1.55-4.34l10.49,3.81A5.74,5.74,0,0,1,47.08,46.83Zm48.82-7.9-4,10.93-2.73-1L93,38.51l.77-.36Zm4.92-7.29-7.77,3.62h0l-1.87.87h0l-2.18,1a14.64,14.64,0,0,1-9.62.42l-42-15.27a1.45,1.45,0,1,0-1,2.73l42,15.27a15.08,15.08,0,0,0,5.1.8,17.54,17.54,0,0,0,5.77-.92L86,49.24a4.37,4.37,0,0,1-5.59,2.6L17.86,29.11a4.36,4.36,0,0,1-2.61-5.58l2.49-6.83a7.27,7.27,0,0,0,3.59,2.86l1.37.49a1.45,1.45,0,1,0,1-2.73l-1.36-.5a4.36,4.36,0,0,1-2.61-5.58l.5-1.37h0l1.49-4.1a4.37,4.37,0,0,1,5.59-2.6l73.44,26.7a2.66,2.66,0,0,1,1.35.83A2.68,2.68,0,0,1,100.82,31.64Z"/><path class="cls-2" d="M31.89,20.3l-2.73-1a1.45,1.45,0,1,0-1,2.73l2.73,1a1.45,1.45,0,1,0,1-2.73Z"/></g></g></svg>